<svg width="23" height="23" viewBox="0 0 23 23" fill="none" xmlns="http://www.w3.org/2000/svg">
<path fill-rule="evenodd" clip-rule="evenodd" d="M0 11.6002C0 14.7329 0.0912051 17.48 0.262688 20.2973C0.337312 21.5233 1.27324 22.5226 2.48572 22.6457C7.14114 23.1184 11.2277 23.1184 15.8831 22.6457C17.0956 22.5226 18.0315 21.5233 18.1062 20.2973C18.2777 17.48 18.3689 14.7329 18.3689 11.6002C18.3689 8.46744 18.2777 5.72037 18.1062 2.90303C18.0315 1.67704 17.0956 0.677853 15.8831 0.554736C11.2277 0.0820152 7.14114 0.0820152 2.48572 0.554736C1.27324 0.677854 0.337312 1.67704 0.262688 2.90303C0.0912051 5.72037 0 8.46744 0 11.6002ZM6.77966 5.13407C5.85549 5.13407 5.10629 5.89403 5.10629 6.83146V7.9163C5.10629 8.85374 5.85549 9.61369 6.77966 9.61369H11.5894C12.5136 9.61369 13.2628 8.85374 13.2628 7.9163V6.83146C13.2628 5.89403 12.5136 5.13407 11.5894 5.13407H6.77966ZM20.8752 17.0811C20.6241 17.2023 20.3637 16.9887 20.3737 16.7066C20.431 15.0735 20.4606 13.3989 20.4606 11.6003C20.4606 11.426 20.4604 11.2529 20.4597 11.0809C20.4591 10.8455 20.6467 10.654 20.8788 10.654H22.2163C22.396 10.654 22.5573 10.7702 22.605 10.946C22.9822 12.3345 22.78 13.7193 22.2732 15.4359C22.0506 16.1893 21.5274 16.7661 20.8752 17.0811ZM22.0498 8.53225C22.237 8.53225 22.4022 8.40597 22.4499 8.22232C22.9094 6.45405 22.9733 5.02294 22.2968 3.50739C21.9618 2.75675 21.3142 2.31672 20.6338 2.14851C20.3675 2.08272 20.1555 2.33751 20.1816 2.61415C20.1867 2.66665 20.1907 2.71941 20.194 2.7724C20.3018 4.54404 20.3784 6.28932 20.4211 8.11664C20.4264 8.34751 20.6122 8.53225 20.8399 8.53225H22.0498Z" fill="#C7C7C7"/>
</svg>
