<svg width="24" height="24" viewBox="0 0 24 24" fill="none" xmlns="http://www.w3.org/2000/svg">
<path fill-rule="evenodd" clip-rule="evenodd" d="M3.46548 3.46548C5.49093 1.44002 8.4138 0.428711 12.0001 0.428711C15.5865 0.428711 18.5093 1.44002 20.5349 3.46548C22.5603 5.49093 23.5716 8.4138 23.5716 12.0001C23.5716 15.5865 22.5603 18.5093 20.5349 20.5349C18.5093 22.5603 15.5865 23.5716 12.0001 23.5716C8.4138 23.5716 5.49093 22.5603 3.46548 20.5349C1.44002 18.5093 0.428711 15.5865 0.428711 12.0001C0.428711 8.4138 1.44002 5.49093 3.46548 3.46548ZM5.29785 5.29785C3.85531 6.74039 3.00014 8.94537 3.00014 12.0001C3.00014 13.7908 3.29399 15.2895 3.82775 16.5137H5.48404C6.24244 16.5137 6.96976 16.2125 7.50602 15.6762C8.04228 15.1399 8.34355 14.4126 8.34355 13.6542V11.2032C8.34355 10.4448 8.64484 9.71748 9.1811 9.18122C9.71736 8.64496 10.4447 8.34369 11.2031 8.34369C11.9615 8.34369 12.6888 8.04242 13.225 7.50616C13.7613 6.96989 14.0626 6.24257 14.0626 5.48417V3.14551C13.4237 3.04984 12.7366 3.00014 12.0001 3.00014C8.94537 3.00014 6.74039 3.85531 5.29785 5.29785ZM21.0001 12.0001C21.0001 11.933 20.9998 11.8664 20.9989 11.8001C20.5244 11.6743 20.0343 11.6086 19.5401 11.6058H16.0596C15.3012 11.6058 14.5738 11.9071 14.0376 12.4434C13.5013 12.9796 13.2001 13.707 13.2001 14.4654C13.2001 15.2237 13.5013 15.9511 14.0376 16.4873C14.5738 17.0236 15.3012 17.3249 16.0596 17.3249C16.6013 17.3249 17.1208 17.54 17.5039 17.9232C17.8561 18.2753 18.0663 18.7429 18.0979 19.237C18.3125 19.0693 18.5141 18.8909 18.7025 18.7025C20.1449 17.2599 21.0001 15.0549 21.0001 12.0001Z" fill="#C7C7C7"/>
</svg>
