<svg width="24" height="18" viewBox="0 0 24 18" fill="none" xmlns="http://www.w3.org/2000/svg">
<path fill-rule="evenodd" clip-rule="evenodd" d="M1.60277 5.396C1.64399 5.0988 1.85928 4.80673 2.24909 4.56211C3.44938 3.80892 4.69423 3.02881 6.13009 2.30969C7.56598 1.59055 9.12356 0.967077 10.6274 0.365945C11.719 -0.070392 13.2839 -0.0701349 14.3786 0.364231L14.4593 0.396254C15.9498 0.987665 17.4935 1.60009 18.9101 2.30969C20.327 3.01928 21.5498 3.79234 22.7306 4.53888L22.7945 4.5793C23.6618 5.12755 23.6623 5.9113 22.7911 6.45799C21.5909 7.21119 20.346 7.99128 18.9101 8.71042C18.7848 8.77323 18.6585 8.83531 18.5313 8.89669C17.2936 9.49435 15.9791 10.0275 14.6954 10.5412L14.4129 10.6542C13.3213 11.0905 11.7564 11.0902 10.6617 10.6559L10.581 10.6239C9.27677 10.1064 7.93196 9.57279 6.66699 8.97211L6.50902 8.89654C6.3818 8.83522 6.25546 8.7732 6.13009 8.71042C5.41865 8.3541 4.75611 7.98178 4.12325 7.60484V13.7944C4.72465 14.2053 5.11939 14.8965 5.11939 15.6798C5.11939 16.9401 4.09776 17.9617 2.83752 17.9617C1.57729 17.9617 0.555664 16.9401 0.555664 15.6798C0.555664 14.8965 0.950404 14.2053 1.55182 13.7944V5.75554C1.55182 5.63074 1.56961 5.51011 1.60277 5.396ZM6.36973 11.1956C6.38671 11.6952 6.42209 12.1853 6.46582 12.6631C6.65451 14.7244 8.32433 16.391 10.3809 16.5875C11.0704 16.6533 11.7865 16.7022 12.5201 16.7022C13.2538 16.7022 13.9699 16.6533 14.6594 16.5875C16.7159 16.391 18.3857 14.7244 18.5745 12.6631C18.6182 12.1858 18.6535 11.6962 18.6705 11.1971C17.5097 11.724 16.325 12.1976 15.2237 12.6377L15.2082 12.6439C13.605 13.2848 11.4726 13.283 9.87139 12.6477L9.75529 12.6016C8.67391 12.1726 7.50919 11.7105 6.36973 11.1956Z" fill="#C7C7C7"/>
</svg>
