<svg width="24" height="24" viewBox="0 0 24 24" fill="none" xmlns="http://www.w3.org/2000/svg">
<path fill-rule="evenodd" clip-rule="evenodd" d="M5.14886 3.83509V1.56843C5.14886 0.85835 5.72448 0.282715 6.43458 0.282715C7.14465 0.282715 7.72029 0.858348 7.72029 1.56843V3.58222C9.57129 3.44744 11.1333 3.40241 12.0002 3.40241C12.8653 3.40241 14.4225 3.44725 16.2683 3.58136V1.56843C16.2683 0.85835 16.8439 0.282715 17.5539 0.282715C18.2641 0.282715 18.8396 0.858348 18.8396 1.56843V3.83285C20.9552 4.23164 22.6423 5.80066 23.1824 7.8637C23.3098 8.35054 22.9092 8.78551 22.4059 8.78551H1.59447C1.09121 8.78551 0.690539 8.35054 0.818013 7.86368C1.35718 5.8045 3.03881 4.23751 5.14886 3.83509ZM0.47273 11.7406C0.491336 11.2852 0.868057 10.9284 1.32389 10.9284H22.6764C23.1322 10.9284 23.509 11.2852 23.5275 11.7406C23.5594 12.5183 23.5716 13.1554 23.5716 13.5617C23.5716 14.4118 23.5179 16.2707 23.3443 18.3137C23.1164 20.9931 21.0202 23.0844 18.3639 23.3557C15.6385 23.634 13.178 23.7169 12.0002 23.7169C10.8224 23.7169 8.36186 23.634 5.63649 23.3557C2.98015 23.0844 0.883993 20.9931 0.656108 18.3137C0.482353 16.2707 0.428711 14.4118 0.428711 13.5617C0.428711 13.1554 0.440965 12.5183 0.47273 11.7406Z" fill="#C7C7C7"/>
</svg>
