<svg width="57" height="74" viewBox="0 0 57 74" fill="none" xmlns="http://www.w3.org/2000/svg">
<path d="M15.9258 21.5359V21.5991L15.9503 21.5166L15.9258 21.5359Z" fill="white"/>
<path d="M26.4249 29.1633L24.0212 26.7375L26.3728 24.3643C25.5751 24.415 24.7825 24.4938 24.0004 24.6005L21.8828 26.7375L24.46 29.3383L25.8422 30.7332C26.5168 30.679 27.1966 30.6475 27.8817 30.6352L26.4249 29.1651V29.1633Z" fill="white"/>
<path d="M26.6481 35.3574C25.5937 34.2932 24.4595 33.7822 23.2784 33.8364C21.4661 33.9222 20.273 35.3486 20.2227 35.4099L21.3829 36.3882C21.3916 36.3777 22.2188 35.4099 23.3582 35.3609C24.0918 35.3294 24.8393 35.6934 25.5781 36.4372L26.6464 35.3591L26.6481 35.3574Z" fill="white"/>
<path d="M25.0994 48.3319L26.2596 49.3103C26.2683 49.2998 27.0955 48.3302 28.235 48.2829C28.9685 48.2514 29.7178 48.6155 30.4548 49.3593L31.5231 48.2812C30.4687 47.2171 29.3345 46.706 28.1534 46.7603C26.3411 46.846 25.148 48.2724 25.0977 48.3319H25.0994Z" fill="white"/>
<path d="M35.3025 36.4355L36.3708 35.3574C35.3164 34.2932 34.1821 33.7822 33.0011 33.8364C31.1888 33.9222 29.9956 35.3486 29.9453 35.4099L31.1055 36.3882C31.1142 36.3777 31.9415 35.4099 33.0809 35.3609C33.8162 35.3294 34.5637 35.6934 35.3008 36.4372L35.3025 36.4355Z" fill="white"/>
<path d="M31.3937 41.0392L30.8925 39.6006L28.3344 40.5089L25.7764 39.6006L25.2734 41.0392L28.3344 42.1244L31.3937 41.0392Z" fill="white"/>
<path d="M15.9292 26.891L16.4929 25.0007C16.3038 25.0742 16.1148 25.153 15.9275 25.2318V21.6001L14.6771 25.7936L14.0753 27.8151C14.6736 27.4843 15.291 27.1762 15.9275 26.8892C15.291 27.1762 14.6719 27.4878 14.0753 27.8168L12.4277 33.3457C13.0347 32.9782 13.666 32.6316 14.3146 32.3061L15.9258 26.8962V26.891H15.9292Z" fill="white"/>
<path d="M16.4902 25.001L16.4951 24.9961L16.4902 25.001Z" fill="white"/>
<path d="M15.9297 25.2295C16.1152 25.1507 16.3043 25.0737 16.4933 24.9984L17.4021 21.9478H17.4038L16.4951 24.9984C16.4951 24.9984 16.4933 24.9984 16.4916 24.9984L15.9279 26.8904V31.5635V33.2244V43.1533C15.9279 47.7528 18.3941 51.7976 22.0551 54.0098C22.0551 54.0098 22.0551 54.0116 22.0551 54.0133C22.7905 56.2693 24.8993 57.904 27.3776 57.904H29.2922C31.7029 57.904 33.7649 56.3586 34.5523 54.1953C34.7726 53.588 34.8939 52.9352 34.8939 52.2509C34.8939 52.9334 34.7743 53.588 34.5523 54.1936C38.385 52.0251 40.9917 47.8806 40.9917 43.1533V33.2227C40.4991 33.0004 39.9962 32.7903 39.4811 32.5961V43.1533C39.4811 44.648 39.1897 46.0989 38.6122 47.4675C38.0555 48.7925 37.2578 49.9808 36.2432 51.0065C35.8218 51.4318 35.3726 51.8186 34.8957 52.1669C34.3893 52.5379 33.8516 52.8652 33.288 53.1452C33.1076 53.9661 32.6862 54.6959 32.0983 55.2525C32.0983 55.2525 32.0948 55.2525 32.0931 55.2525C31.3612 55.949 30.3762 56.3761 29.2922 56.3761H27.3776C26.2347 56.3761 25.1994 55.9 24.4571 55.1334C23.9004 54.5594 23.5084 53.8225 23.3576 53C23.3576 53 23.3576 53 23.3558 53C23.3107 52.7549 23.2865 52.5046 23.2865 52.2474V48.5719C23.2865 46.2949 25.1213 44.4432 27.3776 44.4432H29.2922C31.5485 44.4432 33.3834 46.2949 33.3834 48.5719V52.2474C33.3834 52.5554 33.3487 52.8529 33.2863 53.1417C33.8499 52.8617 34.3875 52.5361 34.8939 52.1633V48.5702C34.8939 45.4531 32.381 42.9153 29.2905 42.9153H27.3759C24.2871 42.9153 21.7724 45.4513 21.7724 48.5702V51.9761C21.3874 51.6768 21.0198 51.3548 20.6746 51.003C19.6584 49.9773 18.8623 48.789 18.3056 47.4641C17.7299 46.0936 17.4368 44.6427 17.4368 43.1498V32.5926C17.4368 32.5926 17.4368 32.5926 17.435 32.5926C17.9397 32.4001 18.4565 32.2198 18.9837 32.0553C21.1776 31.3604 23.4772 30.9194 25.8393 30.7304L24.4554 29.3337C21.9788 29.626 19.6185 30.1843 17.4333 30.9684V22.2576L25.9399 15.3041L26.2469 15.0538L26.3925 14.6845L28.4546 9.47589L30.5166 14.6845L30.6675 15.066L30.9866 15.3198L39.4776 22.0564V24.6362C36.9282 23.7225 34.1465 23.117 31.2155 22.8807L31.2121 22.8772C31.2121 22.8772 31.2121 22.8772 31.2104 22.8772L28.4546 20.0961L25.6971 22.8789C22.7662 23.1152 19.9827 23.7225 17.435 24.6362V26.2586C17.9397 26.0661 18.4565 25.8858 18.9837 25.7213C20.6035 25.212 22.2806 24.8357 23.9975 24.5976C24.7797 24.4891 25.5705 24.4104 26.3683 24.3614L27.9413 22.7739L28.4546 22.2541L27.9413 22.7722C28.1129 22.7687 28.2829 22.7669 28.4546 22.7669C28.6263 22.7669 28.7962 22.7669 28.9662 22.7722L30.5375 24.3579C31.3352 24.4104 32.126 24.4891 32.9082 24.5959H32.9099C34.6269 24.8339 36.3039 25.2085 37.9237 25.723C38.4509 25.8893 38.966 26.0696 39.4724 26.2603C39.9875 26.4546 40.4905 26.6629 40.9813 26.8834C40.4887 26.6629 39.9858 26.4546 39.4724 26.2603V30.9684C37.2855 30.186 34.9269 29.626 32.4504 29.3354L35.0275 26.7346L32.9099 24.5976C32.1278 24.4891 31.3352 24.4104 30.5375 24.3614L32.8891 26.7346L30.4837 29.1622L29.0252 30.6341L28.4494 31.2152L29.0252 30.6323C28.8344 30.6288 28.6419 30.6271 28.4494 30.6271C28.2569 30.6271 28.0644 30.6271 27.8719 30.6323C27.1868 30.6446 26.507 30.6796 25.8324 30.7321L28.4477 33.3714L31.0629 30.7321C33.4285 30.9194 35.7247 31.3622 37.9185 32.057C38.4457 32.2233 38.9608 32.4036 39.4672 32.5943C39.9823 32.7903 40.4852 33.0004 40.9778 33.2209V31.5617V26.8904C41.009 26.9044 41.0419 26.9202 41.0732 26.9342L40.9778 26.6139V26.6086V25.2312V26.6069L41.0749 26.9324L42.6895 32.3528C43.3416 32.6836 43.9746 33.0336 44.5816 33.4047L42.9323 27.8688L42.3288 25.8403C42.3288 25.8403 42.3288 25.8403 42.327 25.8403L40.9864 21.3388H40.9795V21.3178L31.9127 14.1244L28.4477 5.36816L24.9826 14.1244L15.9505 21.5068H15.947L15.9383 21.512L15.9141 21.596V25.2277L15.9297 25.2295ZM22.0551 54.0063C21.8782 53.462 21.7828 52.8827 21.7794 52.2789C21.7828 52.8809 21.88 53.462 22.0551 54.0063ZM40.9934 25.2295C40.8373 25.1665 40.683 25.1 40.5251 25.0387C40.683 25.1 40.8373 25.1647 40.9934 25.2295Z" fill="white"/>
<path d="M15.9578 21.507L15.9535 21.5049L15.9492 21.5177L15.9513 21.5156L15.9578 21.507Z" fill="white"/>
<path d="M8.56223 51.6104C8.49459 51.5369 8.43043 51.4599 8.36453 51.3846C8.43216 51.4599 8.49459 51.5369 8.56396 51.6122L13.7044 34.3587L14.3166 32.3057C13.6662 32.6312 13.0349 32.9777 12.4297 33.3453L11.7568 35.6048C11.7568 35.6048 11.7568 35.6048 11.755 35.6048L7.402 50.2155C7.50432 50.352 7.61358 50.485 7.71937 50.618C7.61185 50.4833 7.50259 50.352 7.40027 50.2155L6.87305 51.9867C7.24765 52.4313 7.64653 52.8636 8.06449 53.2819L8.56223 51.6104Z" fill="white"/>
<path d="M48.4212 51.5436C48.8375 51.0851 49.2225 50.616 49.5797 50.1347L45.2753 35.685L44.5972 33.4098C43.9902 33.037 43.3589 32.6852 42.7051 32.3579L43.319 34.4196C43.319 34.4196 43.319 34.4196 43.3208 34.4196L48.423 51.5436H48.4212Z" fill="white"/>
<path d="M49.5797 50.1348C49.2242 50.6178 48.8374 51.0869 48.4212 51.5419C47.594 52.4485 46.647 53.3009 45.5891 54.092C43.3831 55.7407 40.8078 57.0393 37.9323 57.9477C34.9355 58.8963 31.7479 59.3758 28.4597 59.3758C25.1715 59.3758 21.9839 58.8945 18.9871 57.9477C16.1117 57.0393 13.5363 55.7407 11.3303 54.092C10.3002 53.3201 9.37752 52.4923 8.56414 51.6102L8.06641 53.2816C12.7177 57.9092 20.1213 60.902 28.4597 60.902C36.7981 60.902 44.2711 57.8812 48.9189 53.2169C49.3386 52.7951 49.734 52.3593 50.1087 51.9147L49.5797 50.1365V50.1348Z" fill="white"/>
<path d="M56.9795 0H0V42.2604C0 50.9117 4.37904 58.8768 11.4271 63.0528L28.4906 73.1637L45.5542 63.0528C52.604 58.8751 56.9813 50.9099 56.9813 42.2604V0H56.9778H56.9795ZM55.469 42.2604C55.469 50.3691 51.3761 57.8337 44.7876 61.7384L28.4889 71.3978L12.1902 61.7384C5.60344 57.8337 1.50882 50.3708 1.50882 42.2604V1.52618H55.4655V42.2604H55.469Z" fill="white"/>
<path d="M31.7578 65.8728C29.9559 65.878 28.4974 67.3499 28.4922 69.1684C28.487 67.3499 27.0285 65.878 25.2266 65.8728C27.0285 65.8675 28.487 64.3956 28.4922 62.5771C28.4974 64.3956 29.9559 65.8675 31.7578 65.8728Z" fill="white"/>
<path d="M14.6034 11.7529C12.1962 11.7599 10.2452 13.7289 10.2382 16.1582C10.2313 13.7289 8.28022 11.7599 5.87305 11.7529C8.28022 11.7459 10.2313 9.77694 10.2382 7.34766C10.2452 9.77694 12.1962 11.7459 14.6034 11.7529Z" fill="white"/>
<path d="M51.1092 11.7529C48.7021 11.7599 46.751 13.7289 46.7441 16.1582C46.7371 13.7289 44.7861 11.7599 42.3789 11.7529C44.7861 11.7459 46.7371 9.77694 46.7441 7.34766C46.751 9.77694 48.7021 11.7459 51.1092 11.7529Z" fill="white"/>
</svg>
