<svg width="128" height="48" viewBox="0 0 128 48" fill="none" xmlns="http://www.w3.org/2000/svg">
<path d="M11.2739 13.863V13.9037L11.2898 13.8506L11.2739 13.863Z" fill="white"/>
<path d="M18.108 18.7742L16.5433 17.2126L18.0741 15.6848C17.5548 15.7175 17.0389 15.7682 16.5298 15.8369L15.1514 17.2126L16.8289 18.8869L17.7287 19.7849C18.1678 19.7499 18.6103 19.7296 19.0562 19.7218L18.108 18.7753V18.7742Z" fill="white"/>
<path d="M18.2534 22.7614C17.567 22.0764 16.8287 21.7474 16.0599 21.7823C14.8802 21.8375 14.1035 22.7558 14.0708 22.7952L14.826 23.425C14.8317 23.4183 15.3702 22.7952 16.1118 22.7637C16.5894 22.7434 17.0759 22.9777 17.5568 23.4566L18.2522 22.7625L18.2534 22.7614Z" fill="white"/>
<path d="M17.2453 31.1136L18.0005 31.7435C18.0062 31.7367 18.5446 31.1125 19.2863 31.0821C19.7638 31.0618 20.2515 31.2962 20.7313 31.775L21.4267 31.081C20.7403 30.3959 20.002 30.067 19.2333 30.1019C18.0536 30.1571 17.2769 31.0753 17.2441 31.1136H17.2453Z" fill="white"/>
<path d="M23.8851 23.4554L24.5805 22.7614C23.8942 22.0764 23.1559 21.7474 22.3871 21.7823C21.2074 21.8375 20.4307 22.7558 20.3979 22.7952L21.1532 23.425C21.1588 23.4183 21.6973 22.7952 22.439 22.7637C22.9177 22.7434 23.4042 22.9777 23.884 23.4566L23.8851 23.4554Z" fill="white"/>
<path d="M21.3428 26.4188L21.0165 25.4927L19.3514 26.0774L17.6863 25.4927L17.3589 26.4188L19.3514 27.1174L21.3428 26.4188Z" fill="white"/>
<path d="M11.2753 17.3105L11.6422 16.0937C11.5192 16.141 11.3961 16.1917 11.2742 16.2424V13.9045L10.4603 16.6041L10.0685 17.9054C10.458 17.6925 10.8599 17.4942 11.2742 17.3094C10.8599 17.4942 10.4569 17.6947 10.0685 17.9066L8.99609 21.4658C9.39121 21.2292 9.80213 21.0061 10.2243 20.7965L11.2731 17.3139V17.3105H11.2753Z" fill="white"/>
<path d="M11.6426 16.0958L11.6469 16.0916L11.6426 16.0958Z" fill="white"/>
<path d="M11.2753 16.2413C11.3961 16.1906 11.5191 16.141 11.6422 16.0926L12.2337 14.1287H12.2349L11.6433 16.0926C11.6433 16.0926 11.6422 16.0926 11.6411 16.0926L11.2742 17.3105V20.3188V21.388V27.7798C11.2742 30.7407 12.8795 33.3445 15.2626 34.7686C15.2626 34.7686 15.2626 34.7698 15.2626 34.7709C15.7412 36.2232 17.114 37.2755 18.7272 37.2755H19.9735C21.5427 37.2755 22.8849 36.2807 23.3974 34.8881C23.5408 34.4971 23.6198 34.0769 23.6198 33.6363C23.6198 34.0757 23.5419 34.4971 23.3974 34.8869C25.8923 33.491 27.5891 30.823 27.5891 27.7798V21.3869C27.2684 21.2438 26.9411 21.1086 26.6058 20.9835V27.7798C26.6058 28.742 26.4161 29.676 26.0402 30.5571C25.6778 31.41 25.1585 32.175 24.4981 32.8352C24.2238 33.109 23.9314 33.358 23.621 33.5822C23.2913 33.8211 22.9414 34.0318 22.5745 34.2121C22.4571 34.7405 22.1827 35.2103 21.8 35.5686C21.8 35.5686 21.7978 35.5686 21.7967 35.5686C21.3203 36.017 20.679 36.2919 19.9735 36.2919H18.7272C17.9832 36.2919 17.3093 35.9855 16.8261 35.492C16.4637 35.1224 16.2086 34.6481 16.1104 34.1185C16.1104 34.1185 16.1104 34.1185 16.1093 34.1185C16.0799 33.9608 16.0641 33.7997 16.0641 33.6341V31.268C16.0641 29.8022 17.2585 28.6101 18.7272 28.6101H19.9735C21.4422 28.6101 22.6366 29.8022 22.6366 31.268V33.6341C22.6366 33.8324 22.614 34.0239 22.5733 34.2098C22.9402 34.0295 23.2902 33.82 23.6198 33.58V31.2669C23.6198 29.2602 21.9841 27.6265 19.9724 27.6265H18.726C16.7155 27.6265 15.0786 29.2591 15.0786 31.2669V33.4594C14.828 33.2668 14.5886 33.0595 14.364 32.833C13.7024 32.1727 13.1843 31.4077 12.8219 30.5548C12.4471 29.6726 12.2563 28.7386 12.2563 27.7775V20.9813C12.2563 20.9813 12.2563 20.9813 12.2552 20.9813C12.5837 20.8574 12.9201 20.7413 13.2633 20.6354C14.6914 20.1881 16.1883 19.9042 17.7258 19.7825L16.825 18.8834C15.2129 19.0715 13.6765 19.431 12.2541 19.9357V14.3282L17.7913 9.85181L17.9911 9.69069L18.086 9.45296L19.4282 6.09992L20.7705 9.45296L20.8687 9.69858L21.0764 9.86195L26.6035 14.1986V15.8593C24.944 15.2712 23.1333 14.8814 21.2254 14.7293L21.2232 14.727C21.2232 14.727 21.2232 14.727 21.222 14.727L19.4282 12.9367L17.6333 14.7281C15.7254 14.8802 13.9135 15.2712 12.2552 15.8593V16.9038C12.5837 16.7798 12.9201 16.6638 13.2633 16.5579C14.3177 16.23 15.4093 15.9878 16.5269 15.8346C17.0361 15.7647 17.5509 15.714 18.0702 15.6824L19.0941 14.6605L19.4282 14.3259L19.0941 14.6594C19.2058 14.6572 19.3165 14.656 19.4282 14.656C19.54 14.656 19.6506 14.656 19.7612 14.6594L20.784 15.6802C21.3033 15.714 21.8181 15.7647 22.3272 15.8334H22.3284C23.446 15.9867 24.5376 16.2278 25.592 16.559C25.9352 16.6661 26.2705 16.7821 26.6001 16.9049C26.9354 17.03 27.2628 17.1641 27.5823 17.306C27.2617 17.1641 26.9343 17.03 26.6001 16.9049V19.9357C25.1766 19.4321 23.6413 19.0715 22.0292 18.8845L23.7068 17.2102L22.3284 15.8346C21.8192 15.7647 21.3033 15.714 20.784 15.6824L22.3148 17.2102L20.749 18.773L19.7996 19.7205L19.4248 20.0946L19.7996 19.7194C19.6755 19.7171 19.5501 19.716 19.4248 19.716C19.2995 19.716 19.1742 19.716 19.0489 19.7194C18.603 19.7273 18.1605 19.7498 17.7213 19.7836L19.4237 21.4827L21.1261 19.7836C22.6659 19.9042 24.1606 20.1892 25.5886 20.6365C25.9318 20.7436 26.2671 20.8596 26.5967 20.9824C26.932 21.1086 27.2594 21.2438 27.58 21.3858V20.3177V17.3105C27.6003 17.3195 27.6218 17.3297 27.6421 17.3387L27.58 17.1325V17.1291V16.2424V17.128L27.6432 17.3376L28.6942 20.8269C29.1187 21.0399 29.5308 21.2652 29.9259 21.5041L28.8523 17.9403L28.4594 16.6345C28.4594 16.6345 28.4594 16.6345 28.4583 16.6345L27.5857 13.7366H27.5812V13.7231L21.6793 9.09242L19.4237 3.45557L17.1682 9.09242L11.2888 13.8448H11.2866L11.2809 13.8482L11.2651 13.9023V16.2402L11.2753 16.2413ZM15.2626 34.7664C15.1474 34.416 15.0853 34.0431 15.0831 33.6543C15.0853 34.0419 15.1486 34.416 15.2626 34.7664ZM27.5902 16.2413C27.4886 16.2007 27.3881 16.1579 27.2854 16.1185C27.3881 16.1579 27.4886 16.1996 27.5902 16.2413Z" fill="white"/>
<path d="M11.2959 13.8452L11.293 13.8438L11.29 13.8526L11.2915 13.8511L11.2959 13.8452Z" fill="white"/>
<path d="M6.48041 33.2241C6.43638 33.1767 6.39462 33.1272 6.35172 33.0787C6.39575 33.1272 6.43638 33.1767 6.48154 33.2252L9.8276 22.1182L10.2261 20.7966C9.80277 21.0062 9.39185 21.2293 8.99786 21.4659L8.55985 22.9205C8.55985 22.9205 8.55985 22.9205 8.55872 22.9205L5.72517 32.3261C5.79178 32.414 5.8629 32.4996 5.93176 32.5852C5.86177 32.4985 5.79065 32.414 5.72405 32.3261L5.38086 33.4663C5.6247 33.7525 5.88435 34.0308 6.15641 34.3001L6.48041 33.2241Z" fill="white"/>
<path d="M32.4255 33.1811C32.6964 32.8859 32.947 32.584 33.1796 32.2741L30.3776 22.9722L29.9362 21.5075C29.5411 21.2675 29.1302 21.041 28.7046 20.8303L29.1042 22.1576C29.1042 22.1576 29.1042 22.1576 29.1054 22.1576L32.4266 33.1811H32.4255Z" fill="white"/>
<path d="M33.1812 32.2742C32.9498 32.5851 32.698 32.8871 32.4271 33.18C31.8886 33.7637 31.2722 34.3124 30.5836 34.8216C29.1476 35.883 27.4712 36.719 25.5995 37.3037C23.6488 37.9144 21.5738 38.2231 19.4334 38.2231C17.293 38.2231 15.2181 37.9133 13.2674 37.3037C11.3957 36.719 9.71925 35.883 8.28328 34.8216C7.61272 34.3248 7.01214 33.7918 6.48269 33.224L6.15869 34.3C9.1864 37.2789 14.0057 39.2056 19.4334 39.2056C24.8612 39.2056 29.7256 37.2609 32.7511 34.2583C33.0243 33.9867 33.2817 33.7062 33.5255 33.42L33.1812 32.2753V32.2742Z" fill="white"/>
<path d="M37.9963 0H0.90625V27.2052C0.90625 32.7744 3.75673 37.902 8.34458 40.5903L19.4518 47.0992L30.5591 40.5903C35.1481 37.9009 37.9974 32.7733 37.9974 27.2052V0H37.9952H37.9963ZM37.013 27.2052C37.013 32.4251 34.3488 37.2305 30.0601 39.7441L19.4507 45.9624L8.8413 39.7441C4.55373 37.2305 1.8884 32.4263 1.8884 27.2052V0.982477H37.0108V27.2052H37.013Z" fill="white"/>
<path d="M21.5771 42.4055C20.4042 42.4089 19.4548 43.3564 19.4514 44.5271C19.448 43.3564 18.4986 42.4089 17.3257 42.4055C18.4986 42.4021 19.448 41.4546 19.4514 40.2839C19.4548 41.4546 20.4042 42.4021 21.5771 42.4055Z" fill="white"/>
<path d="M10.4134 7.56587C8.84645 7.57038 7.57643 8.83791 7.57192 10.4018C7.5674 8.83791 6.29738 7.57038 4.73047 7.56587C6.29738 7.56136 7.5674 6.29383 7.57192 4.72998C7.57643 6.29383 8.84645 7.56136 10.4134 7.56587Z" fill="white"/>
<path d="M34.1751 7.56587C32.6082 7.57038 31.3381 8.83791 31.3336 10.4018C31.3291 8.83791 30.0591 7.57038 28.4922 7.56587C30.0591 7.56136 31.3291 6.29383 31.3336 4.72998C31.3381 6.29383 32.6082 7.56136 34.1751 7.56587Z" fill="white"/>
<path d="M63.0843 27.3466C62.9642 26.7243 62.8309 26.2677 62.6834 25.9808C62.5359 25.6919 62.3558 25.5474 62.1441 25.5474C61.9497 25.5474 61.6608 25.7495 61.2731 26.1515C61.0889 26.3445 60.9495 26.4859 60.8579 26.5768C60.4051 27.0072 59.9126 27.3325 59.3774 27.5527C58.8421 27.7729 58.2754 27.882 57.675 27.882C55.7935 27.882 54.2072 26.9163 52.9159 24.9837C51.6246 23.0512 50.9795 20.6115 50.9795 17.6627C50.9795 14.7138 51.6277 12.1842 52.923 10.2396C54.2184 8.29489 55.8119 7.32104 57.7025 7.32104C58.5877 7.32104 59.4323 7.63017 60.2341 8.24843C61.036 8.86668 61.4654 9.17581 61.5214 9.17581C61.6313 9.17581 61.7544 9.11317 61.8887 8.98992C62.023 8.86668 62.1583 8.69494 62.2967 8.47471L62.8086 7.59582H63.4313L63.6531 14.7108H62.9754C62.4677 12.6045 61.7513 10.9629 60.8243 9.78699C59.8973 8.61008 58.8666 8.02214 57.732 8.02214C56.4499 8.02214 55.5117 8.81516 54.9174 10.3982C54.3222 11.9822 54.025 14.4815 54.025 17.897C54.025 21.3126 54.3364 23.5583 54.9591 25.0191C55.5819 26.4799 56.5791 27.2102 57.9548 27.2102C59.0253 27.2102 59.8322 26.7981 60.3766 25.9747C60.921 25.1514 61.1927 23.928 61.1927 22.3077V19.2447C61.1927 18.5941 61.0848 18.1597 60.8681 17.9395C60.6513 17.7192 60.2118 17.6101 59.5473 17.6101H58.8421V16.9919H65.8144V17.6101H65.3586C64.6941 17.6101 64.2545 17.7192 64.0378 17.9395C63.821 18.1597 63.7132 18.5941 63.7132 19.2447V27.3486H63.0894L63.0843 27.3466Z" fill="white"/>
<path d="M65.2565 27.4567V26.8112H65.3114C66.0491 26.8112 66.6699 26.5344 67.1725 25.9798C67.6752 25.4262 68.0924 24.5584 68.4241 23.3764L72.7813 7.73218H74.5386L79.1593 24.0492C79.4636 25.1484 79.7933 25.8676 80.1484 26.2051C80.5025 26.5435 81.0459 26.7455 81.7734 26.8092V27.4547H74.912V26.8092C75.549 26.791 76.0191 26.6859 76.3234 26.493C76.6276 26.3 76.7793 26.0121 76.7793 25.6282C76.7793 25.4545 76.763 25.2716 76.7304 25.0787C76.6979 24.8857 76.6399 24.6392 76.5574 24.3372L75.7556 21.4116H69.7785L69.0174 24.1866C68.9624 24.4069 68.9207 24.62 68.8932 24.8251C68.8657 25.0302 68.8515 25.212 68.8515 25.3676C68.8515 25.8535 69.0082 26.2101 69.3216 26.4394C69.635 26.6687 70.1468 26.792 70.8571 26.8102V27.4557H65.2534H65.2555L65.2565 27.4567ZM70.0705 20.4246H75.4798L72.8098 10.6315L70.0705 20.4246Z" fill="white"/>
<path d="M83.3512 27.4567V19.6417H84.0849C84.5183 22.1056 85.2469 23.9866 86.2706 25.2868C87.2942 26.5869 88.558 27.2375 90.062 27.2375C91.1223 27.2375 92.0035 26.888 92.7035 26.1869C93.4046 25.4868 93.7547 24.6059 93.7547 23.5431C93.7547 22.4804 93.4474 21.65 92.8348 20.9398C92.2222 20.2306 91.1579 19.5498 89.6468 18.9002C86.935 17.7465 85.2072 16.7494 84.4654 15.9069C83.7236 15.0644 83.3512 13.9935 83.3512 12.6934C83.3512 11.1276 83.863 9.84559 84.8867 8.84749C85.9103 7.84939 87.2199 7.35034 88.8155 7.35034C89.7933 7.35034 90.7346 7.63623 91.6382 8.20903C92.5418 8.78182 93.0302 9.06772 93.1045 9.06772C93.252 9.06772 93.4067 8.97175 93.5685 8.77879C93.7303 8.58584 93.8758 8.31611 94.005 7.9686H94.6827L94.7651 14.5482H94.0874C93.6997 12.452 93.0566 10.8407 92.1571 9.71325C91.2576 8.58685 90.1627 8.02315 88.8714 8.02315C87.8284 8.02315 86.9788 8.3444 86.3184 8.98488C85.658 9.62536 85.3293 10.4406 85.3293 11.4296C85.3293 13.051 86.6613 14.4229 89.3273 15.5503C89.8432 15.7705 90.2411 15.9433 90.5168 16.0716C92.2222 16.8323 93.482 17.7061 94.294 18.6951C95.106 19.6841 95.511 20.8428 95.511 22.1703C95.511 23.7543 94.9737 25.1029 93.8992 26.2152C92.8246 27.3274 91.5079 27.8841 89.949 27.8841C88.8053 27.8841 87.7277 27.5588 86.7183 26.9082C85.7079 26.2576 85.1808 25.9323 85.134 25.9323C84.9681 25.9323 84.7788 26.0697 84.5662 26.3445C84.3535 26.6193 84.1561 26.99 83.9709 27.4567H83.3481H83.3512Z" fill="white"/>
<path d="M105.904 25.1766C105.904 25.8272 106.012 26.2616 106.228 26.4818C106.445 26.702 106.886 26.8111 107.549 26.8111H108.393V27.4567H100.77V26.8111H101.655C102.311 26.8111 102.743 26.704 102.956 26.4889C103.168 26.2737 103.274 25.8363 103.274 25.1776V19.2991L99.1939 10.0698C98.8703 9.38281 98.562 8.92518 98.2669 8.69586C97.9718 8.46755 97.5617 8.35238 97.0357 8.35238H96.8413V7.73413H102.901V8.35238C102.403 8.35238 102.057 8.40997 101.863 8.52412C101.669 8.63828 101.572 8.83831 101.572 9.12117C101.572 9.28583 101.637 9.51414 101.766 9.80811C101.775 9.83539 101.785 9.85862 101.794 9.87681L105.473 18.3374L108.199 11.1133C108.309 10.8294 108.395 10.5456 108.455 10.2627C108.515 9.97884 108.545 9.72729 108.545 9.50707C108.545 9.11409 108.419 8.82315 108.165 8.63525C107.911 8.44734 107.526 8.35441 107.009 8.35441H106.899V7.73615H112.253V8.35441C111.459 8.39078 110.812 8.64939 110.31 9.13026C109.807 9.61011 109.321 10.4688 108.849 11.7053L105.903 19.4658V25.1796L105.904 25.1766Z" fill="white"/>
<path d="M117.192 25.1766C117.192 25.8363 117.296 26.2727 117.503 26.4879C117.711 26.7031 118.143 26.8102 118.797 26.8102H119.682V27.4557H112.06V26.8102H112.903C113.568 26.8102 114.007 26.7011 114.224 26.4808C114.441 26.2606 114.549 25.8262 114.549 25.1756V9.98497C114.549 9.33438 114.441 8.89999 114.224 8.67976C114.007 8.45953 113.567 8.34134 112.903 8.32315H112.06V7.73218H119.475C120.767 7.73218 121.765 7.81198 122.471 7.9726C123.176 8.13323 123.797 8.40094 124.332 8.77674C124.895 9.18891 125.338 9.7011 125.661 10.3143C125.985 10.9275 126.146 11.5781 126.146 12.264C126.146 13.4914 125.703 14.537 124.817 15.4018C123.931 16.2665 122.708 16.8413 121.15 17.1252C122.386 17.602 123.287 18.2839 123.855 19.1719C124.423 20.0609 124.753 21.3368 124.844 23.0037C124.844 23.0855 124.849 23.2097 124.858 23.3744C124.968 25.2696 125.361 26.2172 126.034 26.2172C126.375 26.2172 126.638 26.0485 126.822 25.709C127.006 25.3706 127.099 24.8857 127.099 24.2533V23.0027H127.818V24.3079C127.818 25.3878 127.583 26.2192 127.113 26.8011C126.643 27.382 125.97 27.6729 125.093 27.6729C124.54 27.6729 124.042 27.5264 123.6 27.2334C123.157 26.9405 122.798 26.5142 122.521 25.9555C122.125 25.1766 121.894 23.7442 121.829 21.657C121.811 21.0802 121.792 20.6357 121.774 20.3246C121.719 19.1891 121.467 18.4203 121.02 18.0172C120.572 17.6141 119.722 17.4121 118.467 17.4121H117.194V25.1726L117.19 25.1746L117.192 25.1766ZM117.192 16.7433H118.797C120.365 16.7433 121.481 16.3978 122.145 15.7068C122.808 15.0159 123.141 13.8693 123.141 12.266C123.141 10.874 122.816 9.8698 122.166 9.25155C121.516 8.63329 120.444 8.32416 118.949 8.32416C118.175 8.32416 117.689 8.41104 117.489 8.58581C117.291 8.76058 117.192 9.19093 117.192 9.87687V16.7443V16.7433Z" fill="white"/>
<path d="M52.3542 38.3014C52.3542 38.5499 52.3908 38.6984 52.4661 38.7489C52.5414 38.7994 52.7887 38.8267 53.2079 38.8307L53.2039 39.05C52.9871 39.0368 52.7857 39.0277 52.5984 39.0207C52.4112 39.0136 52.2341 39.0116 52.0662 39.0116C51.8983 39.0116 51.7274 39.0146 51.5503 39.0207C51.3733 39.0267 51.184 39.0368 50.9836 39.05L50.9795 38.8307C51.3407 38.8126 51.5554 38.7782 51.6236 38.7267C51.6918 38.6762 51.7264 38.5337 51.7264 38.3004V35.6586H50.9958V35.4475H51.7264V34.9747C51.7264 34.4009 51.8414 33.9635 52.0723 33.6594C52.3033 33.3554 52.6361 33.2048 53.0726 33.2048C53.3484 33.2048 53.5763 33.2755 53.7554 33.416C53.9355 33.5564 54.024 33.7332 54.024 33.9463C54.024 34.0645 53.9965 34.1554 53.9426 34.2231C53.8887 34.2898 53.8124 34.3231 53.7147 34.3231C53.6241 34.3231 53.5529 34.2959 53.5 34.2403C53.4471 34.1858 53.4206 34.11 53.4206 34.016C53.4206 33.9443 53.4338 33.8766 53.4593 33.812C53.4847 33.7473 53.5244 33.6857 53.5793 33.6241C53.5224 33.5554 53.4542 33.5039 53.3718 33.4705C53.2914 33.4372 53.1957 33.42 53.0879 33.42C52.8304 33.42 52.6432 33.517 52.5272 33.712C52.4112 33.9059 52.3532 34.2221 52.3532 34.6606V35.4475H53.4593V35.6586H52.3532V38.3024L52.3542 38.3014Z" fill="white"/>
<path d="M53.7529 37.2406C53.7529 36.6295 53.9147 36.1405 54.2383 35.7758C54.5619 35.4111 54.9923 35.2283 55.5275 35.2283C56.0251 35.2283 56.423 35.398 56.7211 35.7384C57.0183 36.0789 57.1678 36.5365 57.1678 37.1133C57.1678 37.7225 57.004 38.2084 56.6784 38.5731C56.3528 38.9368 55.9213 39.1186 55.3851 39.1186C54.8855 39.1186 54.4876 38.9499 54.1935 38.6115C53.8995 38.2741 53.7529 37.8165 53.7529 37.2406ZM55.4685 35.4394C55.147 35.4394 54.8967 35.599 54.7176 35.9183C54.5385 36.2375 54.45 36.683 54.45 37.2558C54.45 37.7781 54.5385 38.1852 54.7145 38.4771C54.8916 38.7691 55.1348 38.9146 55.4461 38.9146C55.7575 38.9146 56.0129 38.76 56.1971 38.4499C56.3813 38.1407 56.4739 37.7164 56.4739 37.179C56.4739 36.6416 56.3864 36.1981 56.2113 35.895C56.0363 35.591 55.7891 35.4404 55.4706 35.4404L55.4685 35.4394Z" fill="white"/>
<path d="M58.2905 36.0546C58.2905 35.8495 58.2559 35.7192 58.1877 35.6626C58.1195 35.6061 57.9649 35.5757 57.7217 35.5697V35.3434C57.9171 35.3363 58.1145 35.3191 58.3119 35.2929C58.5093 35.2676 58.7077 35.2343 58.9092 35.1929V37.8124C58.9092 38.1649 58.9733 38.4145 59.1005 38.5579C59.2277 38.7014 59.4444 38.7731 59.7486 38.7731C60.0529 38.7731 60.3124 38.7014 60.5281 38.5579C60.7438 38.4145 60.8619 38.2357 60.8812 38.0205V36.0546C60.8812 35.8495 60.8466 35.7192 60.7784 35.6626C60.7102 35.6061 60.5556 35.5768 60.3124 35.5737V35.3434C60.5077 35.3363 60.7062 35.3191 60.9066 35.2929C61.1061 35.2676 61.3065 35.2343 61.508 35.1929V38.2912C61.508 38.5347 61.5355 38.6801 61.5914 38.7286C61.6464 38.7781 61.7746 38.8105 61.9761 38.8287L61.972 39.0479C61.8784 39.0408 61.7878 39.0347 61.6973 39.0307C61.6067 39.0267 61.5172 39.0246 61.4266 39.0246C61.336 39.0246 61.2485 39.0267 61.163 39.0307C61.0776 39.0347 60.9931 39.0398 60.9076 39.0479L60.9036 38.4912C60.7408 38.7034 60.5434 38.861 60.3093 38.964C60.0753 39.066 59.7985 39.1176 59.48 39.1176C59.0526 39.1176 58.7464 39.0115 58.5632 38.8004C58.38 38.5892 58.2885 38.2256 58.2885 37.7114V36.0526L58.2905 36.0546Z" fill="white"/>
<path d="M66.3237 38.3013C66.3237 38.5418 66.3512 38.6862 66.4061 38.7337C66.4611 38.7812 66.5893 38.8135 66.7908 38.8317V39.0509C66.6361 39.0378 66.4896 39.0287 66.3502 39.0216C66.2108 39.0145 66.0754 39.0125 65.9442 39.0125C65.8129 39.0125 65.6765 39.0156 65.5361 39.0216C65.3957 39.0287 65.239 39.0378 65.067 39.0509V38.8317C65.3591 38.8105 65.5361 38.7751 65.6012 38.7246C65.6664 38.6741 65.6979 38.5317 65.6979 38.3023V36.5435C65.6979 36.1799 65.6419 35.9162 65.53 35.7505C65.4181 35.5848 65.239 35.502 64.9938 35.502C64.6692 35.502 64.3751 35.6374 64.1115 35.9091C63.848 36.1809 63.7167 36.4748 63.7167 36.7921V38.3003C63.7167 38.5357 63.7452 38.6791 63.8012 38.7287C63.8571 38.7782 63.9884 38.8125 64.1919 38.8307V39.0499C64.0373 39.0368 63.8897 39.0277 63.7493 39.0206C63.6089 39.0135 63.4715 39.0115 63.3382 39.0115C63.2049 39.0115 63.0726 39.0145 62.9302 39.0206C62.7867 39.0277 62.631 39.0368 62.4611 39.0499V38.8307C62.7572 38.8095 62.9393 38.7741 63.0044 38.7216C63.0696 38.6691 63.1031 38.5286 63.1031 38.3003V36.0536C63.1031 35.8414 63.0675 35.7081 62.9953 35.6546C62.923 35.601 62.7399 35.5747 62.4458 35.5747V35.3555C62.6544 35.3424 62.863 35.3252 63.0706 35.304C63.2782 35.2828 63.4888 35.2575 63.7025 35.2292V36.1233C63.8755 35.8263 64.082 35.603 64.3212 35.4535C64.5603 35.304 64.8309 35.2292 65.1301 35.2292C65.5605 35.2292 65.8678 35.3363 66.051 35.5485C66.2342 35.7606 66.3257 36.1233 66.3257 36.6355V38.3013H66.3237Z" fill="white"/>
<path d="M70.1568 34.0312C70.1568 33.8221 70.1212 33.6887 70.05 33.6342C69.9788 33.5796 69.7956 33.5513 69.4985 33.5513L69.5026 33.3321C69.7223 33.319 69.936 33.3028 70.1467 33.2816C70.3563 33.2604 70.5669 33.2351 70.7745 33.2048V38.2933C70.7745 38.4984 70.805 38.6277 70.8661 38.6812C70.9271 38.7348 71.0625 38.7671 71.2741 38.7772V38.9964C71.0218 39.0217 70.8111 39.0449 70.6443 39.0631C70.4774 39.0813 70.3207 39.1005 70.1762 39.1187L70.1721 38.6418C70.0052 38.8004 69.8211 38.9196 69.6226 38.9984C69.4242 39.0772 69.2115 39.1176 68.9836 39.1176C68.5115 39.1176 68.1411 38.953 67.8694 38.6257C67.5977 38.2984 67.4634 37.8468 67.4634 37.27C67.4634 36.6456 67.616 36.1486 67.9213 35.7799C68.2276 35.4112 68.6356 35.2273 69.1495 35.2273C69.3377 35.2273 69.5138 35.2586 69.6776 35.3212C69.8414 35.3839 70.0012 35.4839 70.1558 35.6182V34.0282L70.1568 34.0312ZM70.1497 38.3357V35.9587C70.0297 35.794 69.8974 35.6728 69.7529 35.592C69.6074 35.5122 69.4486 35.4708 69.2746 35.4708C68.9154 35.4708 68.6397 35.6203 68.4484 35.9203C68.2571 36.2203 68.1614 36.6527 68.1614 37.2184C68.1614 37.7842 68.2499 38.1589 68.428 38.4277C68.6051 38.6964 68.8717 38.8307 69.2288 38.8307C69.415 38.8307 69.5819 38.7903 69.7315 38.7095C69.8811 38.6287 70.0205 38.5034 70.1497 38.3347V38.3357Z" fill="white"/>
<path d="M73.9666 38.5235C73.7631 38.7306 73.5606 38.8831 73.3591 38.9801C73.1576 39.0771 72.947 39.1266 72.7252 39.1266C72.4463 39.1266 72.2286 39.0518 72.0729 38.9023C71.9172 38.7528 71.8389 38.5417 71.8389 38.2699C71.8389 38.0214 71.902 37.8204 72.0281 37.6668C72.1543 37.5133 72.3537 37.3941 72.6275 37.3102C72.7567 37.2718 73.0548 37.1981 73.525 37.088C73.7315 37.0385 73.8923 37.0011 74.0083 36.9728L74.0154 36.5889V36.4627C74.0154 36.0859 73.9645 35.8252 73.8638 35.6777C73.7631 35.5302 73.5921 35.4565 73.3499 35.4565C73.1983 35.4565 73.0599 35.4777 72.9368 35.5201C72.8137 35.5626 72.6977 35.6282 72.5888 35.7181C72.5919 35.7393 72.5959 35.7686 72.6 35.807C72.6132 35.9282 72.6193 36.0111 72.6193 36.0576C72.6193 36.198 72.5858 36.3121 72.5206 36.399C72.4555 36.4859 72.369 36.5293 72.2632 36.5293C72.194 36.5293 72.138 36.5031 72.0973 36.4505C72.0566 36.398 72.0353 36.3273 72.0353 36.2374C72.0353 35.9838 72.1736 35.7535 72.4514 35.5444C72.7292 35.3363 73.0487 35.2312 73.412 35.2312C73.8424 35.2312 74.1548 35.3322 74.3502 35.5333C74.5456 35.7343 74.6422 36.0596 74.6422 36.5112V36.6071L74.6066 37.8588C74.6066 37.8992 74.6066 37.9558 74.6025 38.0275C74.5995 38.0992 74.5985 38.1497 74.5985 38.181C74.5985 38.3932 74.6229 38.5356 74.6717 38.6074C74.7216 38.6791 74.8071 38.7144 74.9312 38.7144C75.0136 38.7144 75.0838 38.6953 75.1439 38.6589C75.2029 38.6225 75.2548 38.5649 75.2986 38.4881L75.4298 38.5649C75.3393 38.7518 75.2263 38.8912 75.092 38.9842C74.9577 39.0771 74.7949 39.1226 74.6066 39.1226C74.4184 39.1226 74.2688 39.0721 74.1579 38.969C74.047 38.867 73.9829 38.7185 73.9645 38.5275V38.5245L73.9666 38.5235ZM74.0022 37.1951C73.3143 37.3355 72.8808 37.4688 72.7048 37.5921C72.5278 37.7163 72.4392 37.8992 72.4392 38.1427C72.4392 38.3366 72.4932 38.4922 72.602 38.6074C72.7099 38.7225 72.8544 38.7801 73.0355 38.7801C73.2166 38.7801 73.3906 38.7306 73.5443 38.6316C73.6969 38.5336 73.8424 38.3811 73.9798 38.177L74.0022 37.1941V37.1951Z" fill="white"/>
<path d="M76.8522 35.6595L76.7982 37.7446V37.9173C76.7982 38.2265 76.8349 38.4376 76.9081 38.5467C76.9814 38.6568 77.1116 38.7114 77.2968 38.7114C77.423 38.7114 77.5319 38.678 77.6214 38.6134C77.712 38.5487 77.7873 38.4467 77.8494 38.3083L78.0081 38.3729C77.9359 38.6083 77.8117 38.7922 77.6347 38.9225C77.4576 39.0528 77.2449 39.1185 76.9946 39.1185C76.7005 39.1185 76.4879 39.0397 76.3586 38.8841C76.2284 38.7285 76.1633 38.4679 76.1633 38.1052V37.9981L76.2253 35.6605H75.8071V35.4958C76.0493 35.3837 76.2406 35.2261 76.381 35.0251C76.5215 34.824 76.61 34.5826 76.6466 34.3018H76.8827L76.8511 35.4504H77.8097V35.6615H76.8511H76.8532L76.8522 35.6595Z" fill="white"/>
<path d="M79.602 38.3015C79.602 38.55 79.6376 38.6985 79.7088 38.749C79.7801 38.7995 79.9622 38.8268 80.2563 38.8308V39.05C80.0731 39.0369 79.8981 39.0278 79.7312 39.0207C79.5643 39.0137 79.4015 39.0116 79.2438 39.0116C79.0861 39.0116 78.9223 39.0147 78.7503 39.0207C78.5793 39.0278 78.3972 39.0369 78.2028 39.05L78.1988 38.8308C78.5753 38.8126 78.7981 38.7783 78.8693 38.7268C78.9406 38.6762 78.9762 38.5338 78.9762 38.3004V36.0537C78.9762 35.8446 78.9406 35.7112 78.8693 35.6567C78.7981 35.6021 78.6221 35.5739 78.3412 35.5739H78.1978V35.3546C78.4369 35.3445 78.674 35.3294 78.906 35.3082C79.138 35.287 79.369 35.2607 79.5979 35.2274L79.602 38.2994V38.3015ZM79.6488 34.1353C79.6488 34.2404 79.5999 34.3394 79.5033 34.4303C79.4066 34.5232 79.2988 34.5677 79.1797 34.5677C79.0759 34.5677 78.9955 34.5374 78.9365 34.4768C78.8775 34.4162 78.847 34.3343 78.847 34.2293C78.847 34.1242 78.8958 34.0302 78.9925 33.9393C79.0891 33.8484 79.1919 33.804 79.3008 33.804C79.4097 33.804 79.4972 33.8332 79.5582 33.8908C79.6193 33.9484 79.6498 34.0292 79.6498 34.1343L79.6488 34.1353Z" fill="white"/>
<path d="M80.7275 37.2406C80.7275 36.6295 80.8893 36.1405 81.2129 35.7758C81.5365 35.4111 81.9669 35.2283 82.5022 35.2283C82.9997 35.2283 83.3976 35.398 83.6957 35.7384C83.9929 36.0789 84.1425 36.5365 84.1425 37.1133C84.1425 37.7225 83.9786 38.2084 83.653 38.5731C83.3274 38.9368 82.896 39.1186 82.3597 39.1186C81.8601 39.1186 81.4622 38.9499 81.1692 38.6115C80.8751 38.2741 80.7286 37.8165 80.7286 37.2406H80.7275ZM82.4431 35.4394C82.1216 35.4394 81.8713 35.599 81.6922 35.9183C81.5131 36.2375 81.4246 36.683 81.4246 37.2558C81.4246 37.7781 81.5131 38.1852 81.6891 38.4771C81.8662 38.7691 82.1094 38.9146 82.4208 38.9146C82.7321 38.9146 82.9875 38.76 83.1717 38.4499C83.3559 38.1407 83.4485 37.7164 83.4485 37.179C83.4485 36.6416 83.361 36.1981 83.186 35.895C83.0109 35.591 82.7637 35.4404 82.4452 35.4404L82.4431 35.4394Z" fill="white"/>
<path d="M88.5292 38.3013C88.5292 38.5418 88.5567 38.6862 88.6127 38.7337C88.6676 38.7812 88.7958 38.8135 88.9973 38.8317V39.0509C88.8426 39.0378 88.6961 39.0287 88.5567 39.0216C88.4173 39.0145 88.282 39.0125 88.1507 39.0125C88.0194 39.0125 87.8831 39.0156 87.7427 39.0216C87.6022 39.0287 87.4455 39.0378 87.2736 39.0509V38.8317C87.5656 38.8105 87.7427 38.7751 87.8078 38.7246C87.8729 38.6741 87.9044 38.5317 87.9044 38.3023V36.5435C87.9044 36.1799 87.8485 35.9162 87.7366 35.7505C87.6246 35.5848 87.4455 35.502 87.2003 35.502C86.8757 35.502 86.5816 35.6374 86.3181 35.9091C86.0545 36.1809 85.9233 36.4748 85.9233 36.7921V38.3003C85.9233 38.5357 85.9518 38.6791 86.0077 38.7287C86.0647 38.7792 86.195 38.8125 86.3985 38.8307V39.0499C86.2438 39.0368 86.0963 39.0277 85.9558 39.0206C85.8154 39.0135 85.678 39.0115 85.5447 39.0115C85.4114 39.0115 85.2792 39.0145 85.1367 39.0206C84.9932 39.0277 84.8375 39.0368 84.6676 39.0499V38.8307C84.9637 38.8095 85.1459 38.7741 85.211 38.7216C85.2761 38.6691 85.3097 38.5286 85.3097 38.3003V36.0536C85.3097 35.8414 85.2741 35.7081 85.2018 35.6546C85.1296 35.601 84.9464 35.5747 84.6523 35.5747V35.3555C84.8609 35.3424 85.0695 35.3252 85.2771 35.304C85.4847 35.2828 85.6953 35.2575 85.909 35.2292V36.1233C86.082 35.8263 86.2886 35.603 86.5277 35.4535C86.7668 35.304 87.0375 35.2292 87.3367 35.2292C87.7671 35.2292 88.0744 35.3363 88.2575 35.5485C88.4407 35.7606 88.5323 36.1233 88.5323 36.6355V38.3013H88.5292Z" fill="white"/>
<path d="M91.8826 39.0499C91.8877 38.8852 91.8917 38.7206 91.8958 38.5529C91.8999 38.3852 91.9019 38.2175 91.9019 38.0518V37.7215H92.0983C92.1197 38.1155 92.2204 38.4114 92.4046 38.6064C92.5877 38.8024 92.8533 38.8994 93.2013 38.8994C93.4567 38.8994 93.6541 38.8398 93.7935 38.7206C93.933 38.6014 94.0021 38.4337 94.0021 38.2155C94.0021 37.8952 93.6786 37.6376 93.0304 37.4437L92.9571 37.4214C92.5013 37.2861 92.2011 37.1436 92.0566 36.9951C91.9121 36.8466 91.8398 36.6375 91.8398 36.3698C91.8398 36.0213 91.9538 35.7445 92.1817 35.5384C92.4097 35.3323 92.716 35.2292 93.1006 35.2292C93.299 35.2292 93.4812 35.2565 93.646 35.3121C93.8119 35.3666 93.9594 35.4495 94.0907 35.5606L94.1527 35.3384L94.3267 35.3424C94.3196 35.499 94.3145 35.6141 94.3135 35.6879C94.3125 35.7616 94.3115 35.8323 94.3115 35.899C94.3115 35.9657 94.3115 36.0364 94.3156 36.1142C94.3186 36.191 94.3206 36.2971 94.3227 36.4334H94.1375C94.0958 36.1112 93.9869 35.8667 93.8108 35.7C93.6348 35.5333 93.3937 35.4495 93.0894 35.4495C92.8727 35.4495 92.6987 35.5081 92.5674 35.6242C92.4361 35.7404 92.37 35.895 92.37 36.0869C92.37 36.3839 92.6834 36.6284 93.3102 36.8203L93.3835 36.8426C93.8322 36.981 94.1395 37.1325 94.3064 37.2952C94.4723 37.4598 94.5557 37.676 94.5557 37.9478C94.5557 38.3034 94.4305 38.5872 94.1782 38.8004C93.9258 39.0125 93.588 39.1196 93.1637 39.1196C92.9622 39.1196 92.776 39.0933 92.605 39.0408C92.4341 38.9883 92.2713 38.9065 92.1197 38.7974L92.0688 39.0509H91.8836V39.0489L91.8826 39.0499Z" fill="white"/>
<path d="M98.4775 37.9973C98.3707 38.363 98.1804 38.6468 97.9036 38.8459C97.6269 39.0459 97.286 39.1449 96.881 39.1449C96.3539 39.1449 95.9326 38.9782 95.6172 38.6438C95.3018 38.3094 95.144 37.8599 95.144 37.2932C95.144 36.6719 95.3211 36.1657 95.6732 35.7758C96.0263 35.3869 96.4821 35.1919 97.0408 35.1919C97.4152 35.1919 97.7276 35.2909 97.98 35.4889C98.2323 35.6869 98.3585 35.9294 98.3585 36.2163C98.3585 36.3284 98.332 36.4183 98.2791 36.485C98.2262 36.5517 98.155 36.585 98.0644 36.585C97.9739 36.585 97.8986 36.5486 97.8456 36.4739C97.7927 36.3991 97.7663 36.2951 97.7663 36.1587C97.7663 36.094 97.7744 36.0304 97.7917 35.9667C97.809 35.9021 97.8334 35.8364 97.867 35.7667C97.7876 35.6546 97.6808 35.5697 97.5475 35.5131C97.4142 35.4566 97.2565 35.4293 97.0733 35.4293C96.707 35.4293 96.4099 35.594 96.1819 35.9213C95.954 36.2486 95.84 36.683 95.84 37.2234C95.84 37.7094 95.951 38.0862 96.1728 38.3498C96.3946 38.6145 96.709 38.7469 97.1161 38.7469C97.3969 38.7469 97.6411 38.6761 97.8467 38.5357C98.0522 38.3953 98.2079 38.1922 98.3107 37.9286L98.4765 37.9932V37.9963L98.4775 37.9973Z" fill="white"/>
<path d="M102.701 38.3013C102.701 38.5367 102.728 38.6802 102.784 38.7297C102.839 38.7802 102.97 38.8135 103.177 38.8317L103.173 39.0509C103.021 39.0378 102.875 39.0287 102.734 39.0216C102.594 39.0145 102.456 39.0125 102.323 39.0125C102.19 39.0125 102.058 39.0156 101.913 39.0216C101.769 39.0277 101.613 39.0378 101.445 39.0509L101.441 38.8317C101.735 38.8105 101.914 38.7751 101.979 38.7246C102.044 38.6741 102.076 38.5317 102.076 38.3023V36.5435C102.076 36.1778 102.021 35.9122 101.91 35.7485C101.799 35.5838 101.622 35.503 101.38 35.503C101.055 35.503 100.761 35.6384 100.498 35.9101C100.234 36.1819 100.103 36.4759 100.103 36.7931V38.3013C100.103 38.5418 100.13 38.6862 100.185 38.7337C100.24 38.7812 100.368 38.8135 100.57 38.8317V39.0509C100.415 39.0378 100.269 39.0287 100.129 39.0216C99.9899 39.0145 99.8546 39.0125 99.7233 39.0125C99.5921 39.0125 99.4557 39.0156 99.3153 39.0216C99.1749 39.0287 99.0182 39.0378 98.8462 39.0509V38.8317C99.1382 38.8105 99.3153 38.7751 99.3804 38.7246C99.4455 38.6741 99.4771 38.5317 99.4771 38.3023V34.0291C99.4771 33.823 99.4425 33.6927 99.3743 33.6351C99.3061 33.5775 99.1515 33.5482 98.9083 33.5482V33.3331C99.1352 33.3118 99.3468 33.2927 99.5422 33.2714C99.7376 33.2502 99.9248 33.229 100.103 33.2068V36.1021C100.278 35.8101 100.482 35.5919 100.715 35.4475C100.949 35.303 101.212 35.2303 101.506 35.2303C101.937 35.2303 102.244 35.3373 102.427 35.5495C102.61 35.7616 102.702 36.1243 102.702 36.6365V38.3023H102.7L102.701 38.3013Z" fill="white"/>
<path d="M103.818 37.2406C103.818 36.6295 103.98 36.1405 104.303 35.7758C104.627 35.4111 105.057 35.2283 105.592 35.2283C106.09 35.2283 106.488 35.398 106.786 35.7384C107.083 36.0789 107.233 36.5365 107.233 37.1133C107.233 37.7225 107.069 38.2084 106.743 38.5731C106.418 38.9368 105.986 39.1186 105.45 39.1186C104.95 39.1186 104.553 38.9499 104.259 38.6115C103.966 38.2731 103.819 37.8165 103.819 37.2406H103.818ZM105.533 35.4394C105.212 35.4394 104.962 35.599 104.783 35.9183C104.603 36.2375 104.515 36.683 104.515 37.2558C104.515 37.7781 104.603 38.1852 104.779 38.4771C104.955 38.7691 105.2 38.9146 105.511 38.9146C105.822 38.9146 106.078 38.76 106.262 38.4499C106.446 38.1407 106.539 37.7164 106.539 37.179C106.539 36.6416 106.451 36.1981 106.276 35.895C106.101 35.591 105.854 35.4404 105.536 35.4404L105.533 35.4394Z" fill="white"/>
<path d="M107.93 37.2406C107.93 36.6295 108.091 36.1405 108.415 35.7758C108.739 35.4111 109.169 35.2283 109.704 35.2283C110.202 35.2283 110.6 35.398 110.898 35.7384C111.195 36.0789 111.345 36.5365 111.345 37.1133C111.345 37.7225 111.181 38.2084 110.855 38.5731C110.53 38.9368 110.098 39.1186 109.562 39.1186C109.062 39.1186 108.664 38.9499 108.371 38.6115C108.078 38.2731 107.931 37.8165 107.931 37.2406H107.93ZM109.645 35.4394C109.324 35.4394 109.073 35.599 108.894 35.9183C108.715 36.2375 108.627 36.683 108.627 37.2558C108.627 37.7781 108.715 38.1852 108.891 38.4771C109.067 38.7691 109.312 38.9146 109.623 38.9146C109.934 38.9146 110.19 38.76 110.374 38.4499C110.558 38.1407 110.651 37.7164 110.651 37.179C110.651 36.6416 110.563 36.1981 110.388 35.895C110.213 35.591 109.966 35.4404 109.647 35.4404L109.645 35.4394Z" fill="white"/>
<path d="M113.094 38.3004C113.094 38.5489 113.13 38.6974 113.199 38.7459C113.268 38.7954 113.445 38.8237 113.729 38.8307V39.05C113.546 39.0368 113.377 39.0277 113.22 39.0207C113.065 39.0136 112.914 39.0116 112.77 39.0116C112.625 39.0116 112.48 39.0146 112.327 39.0207C112.173 39.0277 112.01 39.0368 111.837 39.05V38.8307C112.13 38.8095 112.307 38.7742 112.372 38.7237C112.437 38.6732 112.468 38.5307 112.468 38.3014V34.0282C112.468 33.8261 112.433 33.6948 112.364 33.6362C112.294 33.5766 112.134 33.5473 111.883 33.5473H111.787L111.791 33.3281C112.013 33.3149 112.231 33.2988 112.448 33.2776C112.665 33.2564 112.879 33.2331 113.094 33.2048V38.2994V38.3004Z" fill="white"/>
</svg>
