<svg width="141" height="53" viewBox="0 0 141 53" fill="none" xmlns="http://www.w3.org/2000/svg">
<path d="M11.5186 15.5735V15.6192L11.5363 15.5596L11.5186 15.5735Z" fill="#BA2025"/>
<path d="M19.111 21.0908L17.3726 19.3365L19.0734 17.6201C18.4964 17.6568 17.9232 17.7138 17.3576 17.791L15.8262 19.3365L17.69 21.2174L18.6896 22.2262C19.1775 22.1869 19.6691 22.1642 20.1646 22.1553L19.111 21.0921V21.0908Z" fill="#BA2025"/>
<path d="M19.2729 25.5705C18.5103 24.801 17.6901 24.4314 16.8359 24.4706C15.5253 24.5326 14.6623 25.5642 14.626 25.6085L15.4651 26.3161C15.4713 26.3085 16.0696 25.6085 16.8936 25.5731C17.4242 25.5503 17.9647 25.8136 18.499 26.3515L19.2716 25.5718L19.2729 25.5705Z" fill="#BA2025"/>
<path d="M18.1526 34.9529L18.9917 35.6605C18.998 35.6529 19.5962 34.9517 20.4203 34.9175C20.9508 34.8947 21.4926 35.158 22.0257 35.6959L22.7983 34.9162C22.0357 34.1467 21.2155 33.7771 20.3613 33.8163C19.0506 33.8783 18.1877 34.9099 18.1514 34.9529H18.1526Z" fill="#BA2025"/>
<path d="M25.5306 26.3502L26.3032 25.5705C25.5406 24.801 24.7203 24.4314 23.8662 24.4706C22.5555 24.5326 21.6926 25.5642 21.6562 25.6085L22.4953 26.3161C22.5016 26.3085 23.0999 25.6085 23.9239 25.5731C24.4557 25.5503 24.9963 25.8136 25.5293 26.3515L25.5306 26.3502Z" fill="#BA2025"/>
<path d="M22.7055 29.6791L22.343 28.6387L20.493 29.2956L18.643 28.6387L18.2793 29.6791L20.493 30.4639L22.7055 29.6791Z" fill="#BA2025"/>
<path d="M11.5196 19.4465L11.9272 18.0795C11.7905 18.1326 11.6538 18.1896 11.5183 18.2465V15.6201L10.614 18.6529L10.1788 20.1148C10.6115 19.8756 11.058 19.6528 11.5183 19.4452C11.058 19.6528 10.6103 19.8781 10.1788 20.1161L8.9873 24.1146C9.42629 23.8488 9.88283 23.5981 10.3519 23.3627L11.5171 19.4503V19.4465H11.5196Z" fill="#BA2025"/>
<path d="M11.9268 18.0805L11.9301 18.0771L11.9268 18.0805Z" fill="#BA2025"/>
<path d="M11.5201 18.2456C11.6543 18.1886 11.791 18.1329 11.9277 18.0785L12.5849 15.8723H12.5862L11.929 18.0785C11.929 18.0785 11.9277 18.0785 11.9264 18.0785L11.5188 19.4468V22.8263V24.0275V31.2081C11.5188 34.5345 13.3023 37.4597 15.95 39.0596C15.95 39.0596 15.95 39.0608 15.95 39.0621C16.4818 40.6937 18.007 41.8759 19.7993 41.8759H21.1839C22.9273 41.8759 24.4186 40.7582 24.988 39.1937C25.1473 38.7545 25.2351 38.2824 25.2351 37.7875C25.2351 38.2811 25.1485 38.7545 24.988 39.1925C27.7599 37.6242 29.645 34.6269 29.645 31.2081V24.0263C29.2888 23.8655 28.925 23.7136 28.5525 23.5731V31.2081C28.5525 32.2891 28.3418 33.3384 27.9242 34.3282C27.5215 35.2864 26.9446 36.1458 26.2109 36.8876C25.9061 37.1951 25.5813 37.4749 25.2363 37.7267C24.8701 37.9951 24.4813 38.2318 24.0737 38.4343C23.9432 39.0279 23.6384 39.5558 23.2133 39.9583C23.2133 39.9583 23.2108 39.9583 23.2095 39.9583C22.6802 40.462 21.9678 40.7709 21.1839 40.7709H19.7993C18.9727 40.7709 18.2239 40.4266 17.6871 39.8722C17.2845 39.457 17.0011 38.9241 16.8919 38.3292C16.8919 38.3292 16.8919 38.3292 16.8907 38.3292C16.8581 38.152 16.8405 37.971 16.8405 37.785V35.1269C16.8405 33.4801 18.1675 32.141 19.7993 32.141H21.1839C22.8157 32.141 24.1426 33.4801 24.1426 35.1269V37.785C24.1426 38.0077 24.1176 38.2229 24.0724 38.4318C24.48 38.2292 24.8688 37.9938 25.2351 37.7242V35.1256C25.2351 32.8713 23.4177 31.036 21.1827 31.036H19.798C17.5642 31.036 15.7456 32.8701 15.7456 35.1256V37.5888C15.4671 37.3723 15.2012 37.1394 14.9517 36.885C14.2167 36.1433 13.641 35.2838 13.2384 34.3257C12.822 33.3346 12.61 32.2853 12.61 31.2056V23.5706C12.61 23.5706 12.61 23.5706 12.6088 23.5706C12.9737 23.4314 13.3475 23.301 13.7288 23.182C15.3154 22.6795 16.9785 22.3605 18.6867 22.2238L17.6859 21.2138C15.8948 21.4251 14.1878 21.8289 12.6075 22.396V16.0963L18.7595 11.0675L18.9815 10.8865L19.0868 10.6194L20.5781 6.85255L22.0694 10.6194L22.1785 10.8954L22.4093 11.0789L28.55 15.9508V17.8165C26.7063 17.1558 24.6945 16.7178 22.5749 16.5469L22.5724 16.5444C22.5724 16.5444 22.5724 16.5444 22.5711 16.5444L20.5781 14.5331L18.5839 16.5457C16.4643 16.7165 14.4512 17.1558 12.6088 17.8165V18.9898C12.9737 18.8506 13.3475 18.7202 13.7288 18.6013C14.9002 18.2329 16.1131 17.9608 17.3548 17.7886C17.9204 17.7102 18.4923 17.6532 19.0693 17.6178L20.2069 16.4697L20.5781 16.0938L20.2069 16.4685C20.331 16.4659 20.454 16.4647 20.5781 16.4647C20.7023 16.4647 20.8252 16.4647 20.9481 16.4685L22.0845 17.6152C22.6614 17.6532 23.2333 17.7102 23.799 17.7874H23.8002C25.0419 17.9595 26.2548 18.2304 27.4262 18.6025C27.8075 18.7228 28.18 18.8531 28.5463 18.9911C28.9188 19.1316 29.2825 19.2822 29.6374 19.4417C29.2812 19.2822 28.9175 19.1316 28.5463 18.9911V22.396C26.9647 21.8302 25.2589 21.4251 23.4679 21.215L25.3317 19.3341L23.8002 17.7886C23.2346 17.7102 22.6614 17.6532 22.0845 17.6178L23.7852 19.3341L22.0456 21.0897L20.9908 22.1542L20.5744 22.5744L20.9908 22.1529C20.8528 22.1504 20.7136 22.1492 20.5744 22.1492C20.4351 22.1492 20.2959 22.1491 20.1567 22.1529C19.6613 22.1618 19.1696 22.1871 18.6817 22.2251L20.5731 24.1338L22.4645 22.2251C24.1753 22.3605 25.8359 22.6808 27.4225 23.1833C27.8037 23.3035 28.1763 23.4339 28.5425 23.5719C28.915 23.7136 29.2787 23.8655 29.6349 24.025V22.8251V19.4468C29.6575 19.4569 29.6813 19.4683 29.7039 19.4784L29.6349 19.2468V19.243V18.2468V19.2417L29.7052 19.4771L30.8729 23.3972C31.3444 23.6364 31.8022 23.8896 32.2412 24.1579L31.0484 20.1543L30.612 18.6873C30.612 18.6873 30.612 18.6873 30.6107 18.6873L29.6412 15.4318H29.6362V15.4166L23.0791 10.2144L20.5731 3.88184L18.0672 10.2144L11.5351 15.5533H11.5326L11.5264 15.5571L11.5088 15.6179V18.2443L11.5201 18.2456ZM15.95 39.057C15.8221 38.6634 15.7531 38.2444 15.7506 37.8077C15.7531 38.2432 15.8233 38.6634 15.95 39.057ZM29.6462 18.2456C29.5333 18.2 29.4217 18.1519 29.3076 18.1076C29.4217 18.1519 29.5333 18.1987 29.6462 18.2456Z" fill="#BA2025"/>
<path d="M11.541 15.5532L11.5381 15.5518L11.5352 15.5605L11.5366 15.559L11.541 15.5532Z" fill="#BA2025"/>
<path d="M6.19232 37.3245C6.14341 37.2714 6.09701 37.2157 6.04935 37.1612C6.09826 37.2157 6.14341 37.2714 6.19358 37.3258L9.91112 24.848L10.3539 23.3633C9.88353 23.5987 9.42699 23.8493 8.98926 24.1151L8.50262 25.7492C8.50262 25.7492 8.50262 25.7492 8.50136 25.7492L5.35324 36.3157C5.42724 36.4144 5.50626 36.5106 5.58277 36.6068C5.50501 36.5094 5.42599 36.4144 5.35199 36.3157L4.9707 37.5967C5.24162 37.9182 5.53009 38.2308 5.83236 38.5333L6.19232 37.3245Z" fill="#BA2025"/>
<path d="M35.0187 37.2755C35.3197 36.9439 35.5982 36.6047 35.8565 36.2566L32.7435 25.8066L32.2531 24.1611C31.8142 23.8915 31.3576 23.6371 30.8848 23.4004L31.3288 24.8914C31.3288 24.8914 31.3288 24.8914 31.33 24.8914L35.02 37.2755H35.0187Z" fill="#BA2025"/>
<path d="M35.8575 36.2568C35.6003 36.6062 35.3207 36.9454 35.0196 37.2745C34.4214 37.9302 33.7366 38.5466 32.9715 39.1187C31.3761 40.311 29.5136 41.2502 27.4341 41.9071C25.2667 42.5932 22.9615 42.94 20.5835 42.94C18.2054 42.94 15.9002 42.5919 13.7328 41.9071C11.6533 41.2502 9.7908 40.311 8.19542 39.1187C7.45041 38.5605 6.78316 37.9618 6.19492 37.3239L5.83496 38.5327C9.19881 41.8793 14.5531 44.0437 20.5835 44.0437C26.6138 44.0437 32.0183 41.8591 35.3796 38.4858C35.6831 38.1808 35.9691 37.8656 36.24 37.5441L35.8575 36.2581V36.2568Z" fill="#BA2025"/>
<path d="M41.2077 0H0V30.5628C0 36.8194 3.16693 42.5799 8.26412 45.5999L20.6045 52.9122L32.9449 45.5999C38.0433 42.5786 41.209 36.8182 41.209 30.5628V0H41.2065H41.2077ZM40.1153 30.5628C40.1153 36.427 37.1553 41.8255 32.3905 44.6494L20.6032 51.635L8.81599 44.6494C4.05242 41.8255 1.09118 36.4283 1.09118 30.5628V1.10373H40.1128V30.5628H40.1153Z" fill="#BA2025"/>
<path d="M22.9666 47.6393C21.6635 47.6431 20.6086 48.7076 20.6049 50.0227C20.6011 48.7076 19.5463 47.6431 18.2432 47.6393C19.5463 47.6355 20.6011 46.571 20.6049 45.2559C20.6086 46.571 21.6635 47.6355 22.9666 47.6393Z" fill="#BA2025"/>
<path d="M10.5618 8.49937C8.82097 8.50444 7.40997 9.9284 7.40495 11.6853C7.39993 9.9284 5.98892 8.50444 4.24805 8.49937C5.98892 8.49431 7.39993 7.07034 7.40495 5.31348C7.40997 7.07034 8.82097 8.49431 10.5618 8.49937Z" fill="#BA2025"/>
<path d="M36.9632 8.49937C35.2223 8.50444 33.8113 9.9284 33.8063 11.6853C33.8013 9.9284 32.3903 8.50444 30.6494 8.49937C32.3903 8.49431 33.8013 7.07034 33.8063 5.31348C33.8113 7.07034 35.2223 8.49431 36.9632 8.49937Z" fill="#BA2025"/>
<path d="M69.0795 30.7217C68.9461 30.0226 68.798 29.5097 68.6341 29.1874C68.4702 28.8628 68.2701 28.7005 68.0349 28.7005C67.819 28.7005 67.4979 28.9275 67.0672 29.3792C66.8626 29.5959 66.7077 29.7548 66.606 29.857C66.1029 30.3404 65.5557 30.7059 64.9611 30.9533C64.3664 31.2007 63.7367 31.3232 63.0697 31.3232C60.9794 31.3232 59.2169 30.2383 57.7822 28.0672C56.3476 25.8962 55.6309 23.1554 55.6309 19.8426C55.6309 16.5298 56.351 13.688 57.7902 11.5033C59.2293 9.31865 60.9997 8.22461 63.1002 8.22461C64.0838 8.22461 65.0221 8.57189 65.913 9.26645C66.8038 9.96101 67.2809 10.3083 67.3431 10.3083C67.4652 10.3083 67.602 10.2379 67.7512 10.0995C67.9004 9.961 68.0508 9.76807 68.2045 9.52066L68.7732 8.5333H69.4651L69.7115 16.5264H68.9586C68.3944 14.1601 67.5986 12.3159 66.5687 10.9949C65.5388 9.67274 64.3935 9.01223 63.133 9.01223C61.7085 9.01223 60.6662 9.90312 60.006 11.6815C59.3446 13.461 59.0145 16.2688 59.0145 20.1059C59.0145 23.943 59.3604 26.4659 60.0523 28.1069C60.7442 29.748 61.8521 30.5685 63.3806 30.5685C64.5699 30.5685 65.4664 30.1055 66.0712 29.1806C66.6761 28.2556 66.9779 26.8812 66.9779 25.0609V21.6198C66.9779 20.889 66.8581 20.401 66.6173 20.1536C66.3765 19.9061 65.8881 19.7836 65.1499 19.7836H64.3664V19.089H72.1127V19.7836H71.6063C70.868 19.7836 70.3796 19.9061 70.1388 20.1536C69.898 20.401 69.7782 20.889 69.7782 21.6198V30.724H69.0852L69.0795 30.7217Z" fill="#4F4F4F"/>
<path d="M71.4936 30.8455V30.1203H71.5547C72.3743 30.1203 73.0639 29.8093 73.6224 29.1862C74.1809 28.5643 74.6444 27.5894 75.0129 26.2616L79.8538 8.68652H81.8062L86.9399 27.0174C87.278 28.2522 87.6443 29.0603 88.0388 29.4393C88.4322 29.8195 89.0359 30.0465 89.8443 30.118V30.8432H82.2212V30.118C82.9289 30.0976 83.4512 29.9795 83.7892 29.7628C84.1272 29.546 84.2957 29.2226 84.2957 28.7913C84.2957 28.5961 84.2776 28.3907 84.2414 28.1739C84.2052 27.9571 84.1408 27.6802 84.0492 27.3409L83.1584 24.0542H76.5177L75.672 27.1718C75.611 27.4192 75.5646 27.6587 75.5341 27.889C75.5036 28.1194 75.4878 28.3237 75.4878 28.4985C75.4878 29.0444 75.6619 29.445 76.0101 29.7026C76.3583 29.9602 76.9269 30.0987 77.716 30.1191V30.8443H71.4902H71.4925L71.4936 30.8455ZM76.8421 22.9454H82.852L79.8855 11.9437L76.8421 22.9454Z" fill="#4F4F4F"/>
<path d="M91.5971 30.8458V22.0662H92.4122C92.8938 24.8342 93.7033 26.9474 94.8406 28.408C95.9779 29.8686 97.382 30.5995 99.0529 30.5995C100.231 30.5995 101.21 30.2068 101.988 29.4192C102.767 28.6327 103.156 27.6431 103.156 26.4491C103.156 25.2552 102.814 24.3223 102.134 23.5245C101.453 22.7278 100.271 21.9629 98.5917 21.2331C95.5788 19.9371 93.6592 18.8169 92.8351 17.8704C92.0109 16.9239 91.5971 15.7209 91.5971 14.2603C91.5971 12.5012 92.1658 11.061 93.3031 9.93974C94.4404 8.81845 95.8954 8.25781 97.668 8.25781C98.7545 8.25781 99.8002 8.57899 100.804 9.22248C101.808 9.86597 102.351 10.1871 102.433 10.1871C102.597 10.1871 102.769 10.0793 102.949 9.86256C103.128 9.6458 103.29 9.34278 103.434 8.95237H104.187L104.278 16.344H103.525C103.095 13.9891 102.38 12.1789 101.381 10.9123C100.381 9.64693 99.1649 9.01365 97.7302 9.01365C96.5714 9.01365 95.6275 9.37455 94.8937 10.0941C94.16 10.8136 93.7949 11.7295 93.7949 12.8405C93.7949 14.6621 95.2747 16.2033 98.2367 17.4698C98.8099 17.7172 99.2519 17.9113 99.5583 18.0554C101.453 18.91 102.853 19.8917 103.755 21.0027C104.657 22.1138 105.107 23.4156 105.107 24.9068C105.107 26.6863 104.51 28.2014 103.316 29.451C102.122 30.7005 100.659 31.3258 98.9274 31.3258C97.6567 31.3258 96.4595 30.9604 95.338 30.2295C94.2154 29.4986 93.6298 29.1332 93.5778 29.1332C93.3935 29.1332 93.1833 29.2875 92.947 29.5962C92.7107 29.9049 92.4914 30.3214 92.2856 30.8458H91.5938H91.5971Z" fill="#4F4F4F"/>
<path d="M116.652 28.2847C116.652 29.0155 116.772 29.5035 117.013 29.7509C117.254 29.9984 117.743 30.1209 118.48 30.1209H119.418V30.8461H110.949V30.1209H111.932C112.661 30.1209 113.141 30.0006 113.377 29.7589C113.614 29.5171 113.731 29.0257 113.731 28.2858V21.6818L109.198 11.3133C108.838 10.5416 108.496 10.0275 108.168 9.76988C107.84 9.51339 107.384 9.38401 106.8 9.38401H106.584V8.68945H113.316V9.38401C112.763 9.38401 112.379 9.4487 112.163 9.57695C111.947 9.70519 111.84 9.9299 111.84 10.2477C111.84 10.4327 111.912 10.6892 112.056 11.0194C112.066 11.0501 112.076 11.0762 112.086 11.0966L116.174 20.6014L119.203 12.4857C119.325 12.1668 119.42 11.8479 119.487 11.5301C119.553 11.2112 119.587 10.9286 119.587 10.6812C119.587 10.2397 119.447 9.91287 119.164 9.70178C118.883 9.49069 118.454 9.38628 117.88 9.38628H117.758V8.69173H123.707V9.38628C122.825 9.42714 122.106 9.71767 121.548 10.2579C120.989 10.797 120.449 11.7616 119.925 13.1507L116.651 21.8691V28.2881L116.652 28.2847Z" fill="#4F4F4F"/>
<path d="M129.194 28.284C129.194 29.0251 129.309 29.5154 129.539 29.7571C129.77 29.9988 130.249 30.1191 130.976 30.1191H131.96V30.8443H123.491V30.1191H124.428C125.167 30.1191 125.655 29.9966 125.896 29.7491C126.137 29.5017 126.256 29.0137 126.256 28.2829V11.2174C126.256 10.4865 126.137 9.99846 125.896 9.75105C125.655 9.50365 125.166 9.37087 124.428 9.35044H123.491V8.68652H131.73C133.165 8.68652 134.274 8.77617 135.059 8.95662C135.842 9.13707 136.532 9.43782 137.126 9.86001C137.752 10.323 138.243 10.8984 138.603 11.5873C138.962 12.2762 139.141 13.0071 139.141 13.7777C139.141 15.1566 138.649 16.3312 137.665 17.3027C136.681 18.2742 135.322 18.9199 133.591 19.2388C134.964 19.7745 135.965 20.5406 136.596 21.5381C137.227 22.5369 137.593 23.9702 137.695 25.8428C137.695 25.9347 137.701 26.0743 137.711 26.2593C137.833 28.3884 138.269 29.4529 139.017 29.4529C139.395 29.4529 139.688 29.2634 139.893 28.8821C140.097 28.5019 140.2 27.9571 140.2 27.2467V25.8417H141V27.308C141 28.5212 140.738 29.4552 140.216 30.1089C139.694 30.7615 138.945 31.0883 137.972 31.0883C137.357 31.0883 136.804 30.9238 136.312 30.5946C135.821 30.2655 135.422 29.7866 135.114 29.159C134.674 28.284 134.418 26.6747 134.345 24.33C134.325 23.682 134.305 23.1826 134.284 22.8331C134.223 21.5574 133.943 20.6938 133.447 20.241C132.949 19.7881 132.004 19.5611 130.61 19.5611H129.196V28.2794L129.191 28.2817L129.194 28.284ZM129.194 18.8098H130.976C132.719 18.8098 133.959 18.4217 134.696 17.6454C135.433 16.8692 135.803 15.581 135.803 13.78C135.803 12.2161 135.442 11.088 134.72 10.3934C133.997 9.69885 132.807 9.35157 131.146 9.35157C130.286 9.35157 129.745 9.44917 129.524 9.64551C129.303 9.84185 129.194 10.3253 129.194 11.0959V18.811V18.8098Z" fill="#4F4F4F"/>
<path d="M57.1582 43.0283C57.1582 43.3075 57.1989 43.4743 57.2826 43.5311C57.3662 43.5878 57.6409 43.6185 58.1067 43.623L58.1022 43.8693C57.8614 43.8545 57.6375 43.8443 57.4295 43.8364C57.2215 43.8284 57.0248 43.8261 56.8383 43.8261C56.6517 43.8261 56.4618 43.8295 56.2651 43.8364C56.0684 43.8432 55.8581 43.8545 55.6354 43.8693L55.6309 43.623C56.0322 43.6026 56.2707 43.564 56.3465 43.5061C56.4222 43.4493 56.4607 43.2893 56.4607 43.0272V40.0594H55.6489V39.8222H56.4607V39.2911C56.4607 38.6464 56.5884 38.155 56.845 37.8134C57.1017 37.4718 57.4713 37.3027 57.9563 37.3027C58.2627 37.3027 58.516 37.3822 58.7149 37.5399C58.915 37.6977 59.0134 37.8963 59.0134 38.1357C59.0134 38.2685 58.9829 38.3707 58.9229 38.4467C58.863 38.5216 58.7782 38.5591 58.6697 38.5591C58.5691 38.5591 58.4899 38.5284 58.4312 38.466C58.3724 38.4047 58.343 38.3196 58.343 38.214C58.343 38.1335 58.3577 38.0574 58.3859 37.9848C58.4142 37.9122 58.4583 37.8429 58.5193 37.7737C58.456 37.6965 58.3803 37.6387 58.2887 37.6012C58.1994 37.5638 58.0931 37.5445 57.9733 37.5445C57.6873 37.5445 57.4793 37.6534 57.3504 37.8724C57.2215 38.0903 57.1571 38.4456 57.1571 38.9381V39.8222H58.3859V40.0594H57.1571V43.0294L57.1582 43.0283Z" fill="#4F4F4F"/>
<path d="M58.7129 41.8369C58.7129 41.1503 58.8926 40.601 59.2521 40.1913C59.6117 39.7816 60.0899 39.5762 60.6845 39.5762C61.2373 39.5762 61.6794 39.7668 62.0106 40.1493C62.3407 40.5318 62.5069 41.0459 62.5069 41.6939C62.5069 42.3782 62.3249 42.9241 61.9631 43.3338C61.6014 43.7424 61.122 43.9467 60.5262 43.9467C59.9712 43.9467 59.5291 43.7571 59.2024 43.377C58.8757 42.9979 58.7129 42.4838 58.7129 41.8369ZM60.6189 39.8134C60.2617 39.8134 59.9836 39.9927 59.7846 40.3513C59.5857 40.7099 59.4873 41.2104 59.4873 41.8539C59.4873 42.4407 59.5857 42.898 59.7812 43.226C59.9779 43.554 60.2481 43.7174 60.5941 43.7174C60.94 43.7174 61.2238 43.5438 61.4284 43.1954C61.633 42.8481 61.7359 42.3714 61.7359 41.7677C61.7359 41.1639 61.6387 40.6657 61.4442 40.3252C61.2498 39.9836 60.9751 39.8145 60.6212 39.8145L60.6189 39.8134Z" fill="#4F4F4F"/>
<path d="M63.754 40.5042C63.754 40.2738 63.7156 40.1274 63.6398 40.0639C63.5641 40.0003 63.3923 39.9663 63.1221 39.9594V39.7052C63.3391 39.6973 63.5585 39.678 63.7778 39.6485C63.9971 39.6201 64.2175 39.5827 64.4414 39.5361V42.4789C64.4414 42.875 64.5126 43.1553 64.6539 43.3165C64.7952 43.4776 65.036 43.5582 65.3741 43.5582C65.7121 43.5582 66.0004 43.4776 66.2401 43.3165C66.4797 43.1553 66.6109 42.9545 66.6323 42.7127V40.5042C66.6323 40.2738 66.5939 40.1274 66.5182 40.0639C66.4424 40.0003 66.2706 39.9674 66.0004 39.964V39.7052C66.2174 39.6973 66.4379 39.678 66.6606 39.6485C66.8822 39.6201 67.1049 39.5827 67.3287 39.5361V43.0169C67.3287 43.2904 67.3593 43.4538 67.4214 43.5083C67.4825 43.5639 67.6249 43.6002 67.8488 43.6206L67.8443 43.8669C67.7403 43.859 67.6396 43.8522 67.539 43.8476C67.4384 43.8431 67.3389 43.8408 67.2383 43.8408C67.1377 43.8408 67.0405 43.8431 66.9455 43.8476C66.8505 43.8522 66.7567 43.8578 66.6617 43.8669L66.6572 43.2416C66.4763 43.4799 66.257 43.657 65.997 43.7727C65.737 43.8873 65.4295 43.9452 65.0756 43.9452C64.6008 43.9452 64.2605 43.8261 64.057 43.5889C63.8535 43.3517 63.7518 42.9431 63.7518 42.3654V40.5019L63.754 40.5042Z" fill="#4F4F4F"/>
<path d="M72.6805 43.0284C72.6805 43.2985 72.711 43.4608 72.7721 43.5141C72.8331 43.5675 72.9756 43.6038 73.1994 43.6242V43.8705C73.0276 43.8557 72.8648 43.8455 72.7099 43.8376C72.555 43.8296 72.4046 43.8274 72.2588 43.8274C72.113 43.8274 71.9615 43.8308 71.8055 43.8376C71.6495 43.8455 71.4754 43.8557 71.2843 43.8705V43.6242C71.6088 43.6004 71.8055 43.5606 71.8778 43.5039C71.9502 43.4472 71.9852 43.2871 71.9852 43.0295V41.0537C71.9852 40.6451 71.923 40.3489 71.7987 40.1628C71.6743 39.9766 71.4753 39.8836 71.2029 39.8836C70.8423 39.8836 70.5155 40.0356 70.2227 40.3409C69.9299 40.6462 69.7841 40.9765 69.7841 41.3328V43.0273C69.7841 43.2917 69.8157 43.4528 69.8779 43.5084C69.9401 43.5641 70.0859 43.6026 70.312 43.6231V43.8694C70.1402 43.8546 69.9763 43.8444 69.8203 43.8364C69.6643 43.8285 69.5116 43.8262 69.3635 43.8262C69.2154 43.8262 69.0685 43.8296 68.9102 43.8364C68.7508 43.8444 68.5778 43.8546 68.389 43.8694V43.6231C68.718 43.5992 68.9204 43.5595 68.9927 43.5005C69.0651 43.4415 69.1024 43.2837 69.1024 43.0273V40.5032C69.1024 40.2649 69.0628 40.1151 68.9826 40.055C68.9023 39.9948 68.6988 39.9653 68.3721 39.9653V39.719C68.6038 39.7043 68.8356 39.685 69.0662 39.6611C69.2968 39.6373 69.5309 39.6089 69.7683 39.5771V40.5815C69.9605 40.2479 70.1899 39.9971 70.4556 39.8291C70.7213 39.6611 71.022 39.5771 71.3544 39.5771C71.8326 39.5771 72.174 39.6975 72.3775 39.9358C72.581 40.1741 72.6827 40.5815 72.6827 41.1569V43.0284H72.6805Z" fill="#4F4F4F"/>
<path d="M76.9378 38.2311C76.9378 37.9962 76.8982 37.8464 76.8191 37.7851C76.74 37.7238 76.5365 37.692 76.2064 37.692L76.2109 37.4457C76.4551 37.431 76.6925 37.4128 76.9265 37.389C77.1594 37.3651 77.3934 37.3368 77.624 37.3027V43.0192C77.624 43.2496 77.6579 43.3949 77.7258 43.455C77.7936 43.5152 77.944 43.5515 78.1791 43.5628V43.8091C77.8987 43.8375 77.6647 43.8636 77.4793 43.884C77.2939 43.9045 77.1198 43.926 76.9593 43.9464L76.9548 43.4108C76.7694 43.5889 76.5647 43.7229 76.3443 43.8114C76.1238 43.8999 75.8875 43.9453 75.6343 43.9453C75.1098 43.9453 74.6982 43.7603 74.3964 43.3926C74.0945 43.0249 73.9453 42.5176 73.9453 41.8696C73.9453 41.1682 74.1149 40.6098 74.454 40.1956C74.7943 39.7814 75.2477 39.5748 75.8186 39.5748C76.0277 39.5748 76.2233 39.61 76.4053 39.6803C76.5873 39.7507 76.7648 39.8631 76.9367 40.014V38.2277L76.9378 38.2311ZM76.9299 43.0669V40.3965C76.7965 40.2115 76.6495 40.0753 76.489 39.9845C76.3273 39.8948 76.151 39.8483 75.9576 39.8483C75.5586 39.8483 75.2522 40.0163 75.0397 40.3533C74.8271 40.6904 74.7208 41.1761 74.7208 41.8117C74.7208 42.4472 74.8192 42.8683 75.017 43.1702C75.2138 43.4721 75.51 43.623 75.9068 43.623C76.1137 43.623 76.2991 43.5776 76.4652 43.4868C76.6314 43.396 76.7863 43.2553 76.9299 43.0658V43.0669Z" fill="#4F4F4F"/>
<path d="M81.1706 43.2777C80.9445 43.5104 80.7195 43.6818 80.4956 43.7907C80.2718 43.8997 80.0378 43.9553 79.7913 43.9553C79.4816 43.9553 79.2396 43.8713 79.0667 43.7033C78.8937 43.5354 78.8066 43.2982 78.8066 42.9929C78.8066 42.7137 78.8767 42.4879 79.0169 42.3153C79.1571 42.1428 79.3787 42.0089 79.6828 41.9147C79.8264 41.8716 80.1576 41.7888 80.6799 41.6651C80.9094 41.6094 81.088 41.5674 81.2169 41.5357L81.2248 41.1044V40.9626C81.2248 40.5392 81.1683 40.2464 81.0564 40.0807C80.9445 39.915 80.7545 39.8322 80.4855 39.8322C80.317 39.8322 80.1633 39.856 80.0265 39.9037C79.8897 39.9513 79.7608 40.0251 79.6398 40.1261C79.6432 40.15 79.6477 40.1829 79.6523 40.226C79.667 40.3622 79.6737 40.4553 79.6737 40.5075C79.6737 40.6652 79.6364 40.7935 79.5641 40.8911C79.4917 40.9887 79.3956 41.0374 79.2781 41.0374C79.2012 41.0374 79.139 41.008 79.0938 40.9489C79.0486 40.8899 79.0248 40.8105 79.0248 40.7095C79.0248 40.4246 79.1786 40.1658 79.4872 39.9309C79.7958 39.6971 80.1508 39.5791 80.5544 39.5791C81.0326 39.5791 81.3797 39.6926 81.5968 39.9184C81.8138 40.1443 81.9212 40.5097 81.9212 41.017V41.1248L81.8817 42.531C81.8817 42.5764 81.8817 42.6399 81.8771 42.7205C81.8737 42.8011 81.8726 42.8578 81.8726 42.893C81.8726 43.1313 81.8998 43.2914 81.954 43.3719C82.0094 43.4525 82.1044 43.4922 82.2423 43.4922C82.3339 43.4922 82.4119 43.4707 82.4786 43.4298C82.5441 43.389 82.6018 43.3243 82.6504 43.238L82.7962 43.3243C82.6956 43.5342 82.5702 43.6909 82.4209 43.7953C82.2717 43.8997 82.0908 43.9507 81.8817 43.9507C81.6725 43.9507 81.5063 43.894 81.3831 43.7782C81.2599 43.6636 81.1887 43.4968 81.1683 43.2823V43.2789L81.1706 43.2777ZM81.2101 41.7854C80.4459 41.9431 79.9643 42.0929 79.7687 42.2314C79.572 42.371 79.4737 42.5764 79.4737 42.8499C79.4737 43.0678 79.5336 43.2426 79.6545 43.3719C79.7744 43.5013 79.9349 43.566 80.1361 43.566C80.3374 43.566 80.5307 43.5104 80.7014 43.3992C80.871 43.2891 81.0326 43.1177 81.1853 42.8885L81.2101 41.7842V41.7854Z" fill="#4F4F4F"/>
<path d="M84.3759 40.0605L84.316 42.4029V42.597C84.316 42.9442 84.3567 43.1814 84.4381 43.304C84.5195 43.4277 84.6642 43.489 84.8699 43.489C85.0101 43.489 85.1311 43.4515 85.2306 43.3789C85.3312 43.3063 85.4148 43.1916 85.4838 43.0362L85.6602 43.1088C85.5799 43.3732 85.442 43.5798 85.2453 43.7262C85.0486 43.8726 84.8123 43.9464 84.5342 43.9464C84.2074 43.9464 83.9712 43.8578 83.8276 43.6831C83.6829 43.5083 83.6105 43.2155 83.6105 42.808V42.6878L83.6795 40.0616H83.2148V39.8766C83.4839 39.7506 83.6964 39.5736 83.8525 39.3477C84.0085 39.1219 84.1068 38.8507 84.1475 38.5352H84.4098L84.3748 39.8255H85.4397V40.0627H84.3748H84.377L84.3759 40.0605Z" fill="#4F4F4F"/>
<path d="M87.4322 43.0282C87.4322 43.3074 87.4718 43.4742 87.5509 43.5309C87.63 43.5877 87.8324 43.6183 88.1591 43.6229V43.8691C87.9556 43.8544 87.7612 43.8442 87.5758 43.8362C87.3904 43.8283 87.2095 43.826 87.0343 43.826C86.859 43.826 86.677 43.8294 86.4859 43.8362C86.296 43.8442 86.0937 43.8544 85.8777 43.8691L85.8732 43.6229C86.2915 43.6024 86.5391 43.5638 86.6182 43.506C86.6974 43.4492 86.7369 43.2892 86.7369 43.027V40.503C86.7369 40.2681 86.6974 40.1183 86.6182 40.057C86.5391 39.9957 86.3435 39.9639 86.0315 39.9639H85.8721V39.7177C86.1377 39.7063 86.4012 39.6893 86.6589 39.6655C86.9167 39.6416 87.1733 39.6121 87.4277 39.5747L87.4322 43.0259V43.0282ZM87.4842 38.3478C87.4842 38.4659 87.4299 38.5771 87.3225 38.6792C87.2151 38.7836 87.0953 38.8336 86.963 38.8336C86.8477 38.8336 86.7584 38.7995 86.6928 38.7314C86.6273 38.6633 86.5933 38.5714 86.5933 38.4534C86.5933 38.3353 86.6476 38.2298 86.755 38.1277C86.8624 38.0255 86.9766 37.9756 87.0976 37.9756C87.2185 37.9756 87.3157 38.0085 87.3836 38.0732C87.4514 38.1379 87.4853 38.2287 87.4853 38.3467L87.4842 38.3478Z" fill="#4F4F4F"/>
<path d="M88.6826 41.8369C88.6826 41.1503 88.8624 40.601 89.2219 40.1913C89.5814 39.7816 90.0596 39.5762 90.6542 39.5762C91.2071 39.5762 91.6491 39.7668 91.9804 40.1493C92.3105 40.5318 92.4766 41.0459 92.4766 41.6939C92.4766 42.3782 92.2946 42.9241 91.9329 43.3338C91.5711 43.7424 91.0918 43.9467 90.496 43.9467C89.9409 43.9467 89.4989 43.7571 89.1733 43.377C88.8465 42.9979 88.6837 42.4838 88.6837 41.8369H88.6826ZM90.5887 39.8134C90.2314 39.8134 89.9533 39.9927 89.7544 40.3513C89.5554 40.7099 89.457 41.2104 89.457 41.8539C89.457 42.4407 89.5554 42.898 89.751 43.226C89.9477 43.554 90.2179 43.7174 90.5638 43.7174C90.9097 43.7174 91.1935 43.5438 91.3981 43.1954C91.6028 42.8481 91.7056 42.3714 91.7056 41.7677C91.7056 41.1639 91.6084 40.6657 91.414 40.3252C91.2195 39.9836 90.9448 39.8145 90.5909 39.8145L90.5887 39.8134Z" fill="#4F4F4F"/>
<path d="M97.3493 43.0284C97.3493 43.2985 97.3798 43.4608 97.442 43.5141C97.503 43.5675 97.6455 43.6038 97.8693 43.6242V43.8705C97.6975 43.8557 97.5347 43.8455 97.3798 43.8376C97.2249 43.8296 97.0746 43.8274 96.9287 43.8274C96.7829 43.8274 96.6314 43.8308 96.4754 43.8376C96.3194 43.8455 96.1453 43.8557 95.9542 43.8705V43.6242C96.2787 43.6004 96.4754 43.5606 96.5477 43.5039C96.6201 43.4472 96.6551 43.2871 96.6551 43.0295V41.0537C96.6551 40.6451 96.593 40.3489 96.4686 40.1628C96.3442 39.9766 96.1453 39.8836 95.8728 39.8836C95.5122 39.8836 95.1855 40.0356 94.8927 40.3409C94.5999 40.6462 94.454 40.9765 94.454 41.3328V43.0273C94.454 43.2917 94.4857 43.4528 94.5478 43.5084C94.6112 43.5652 94.7559 43.6026 94.982 43.6231V43.8694C94.8101 43.8546 94.6462 43.8444 94.4902 43.8364C94.3342 43.8285 94.1816 43.8262 94.0335 43.8262C93.8854 43.8262 93.7384 43.8296 93.5801 43.8364C93.4207 43.8444 93.2477 43.8546 93.059 43.8694V43.6231C93.3879 43.5992 93.5903 43.5595 93.6626 43.5005C93.735 43.4415 93.7723 43.2837 93.7723 43.0273V40.5032C93.7723 40.2649 93.7327 40.1151 93.6525 40.055C93.5722 39.9948 93.3687 39.9653 93.042 39.9653V39.719C93.2737 39.7043 93.5055 39.685 93.7361 39.6611C93.9668 39.6373 94.2008 39.6089 94.4382 39.5771V40.5815C94.6304 40.2479 94.8599 39.9971 95.1255 39.8291C95.3912 39.6611 95.6919 39.5771 96.0243 39.5771C96.5025 39.5771 96.8439 39.6975 97.0474 39.9358C97.2509 40.1741 97.3527 40.5815 97.3527 41.1569V43.0284H97.3493Z" fill="#4F4F4F"/>
<path d="M101.075 43.8694C101.08 43.6844 101.085 43.4994 101.09 43.311C101.094 43.1226 101.096 42.9342 101.096 42.7481V42.377H101.314C101.338 42.8196 101.45 43.1521 101.655 43.3711C101.858 43.5913 102.153 43.7003 102.54 43.7003C102.824 43.7003 103.043 43.6333 103.198 43.4994C103.353 43.3655 103.43 43.1771 103.43 42.9319C103.43 42.5722 103.07 42.2828 102.35 42.0649L102.269 42.0399C101.762 41.8878 101.429 41.7278 101.268 41.561C101.108 41.3941 101.027 41.1592 101.027 40.8585C101.027 40.4669 101.154 40.156 101.407 39.9244C101.66 39.6929 102.001 39.5771 102.428 39.5771C102.649 39.5771 102.851 39.6078 103.034 39.6702C103.218 39.7315 103.382 39.8246 103.528 39.9494L103.597 39.6997L103.79 39.7043C103.782 39.8802 103.777 40.0096 103.776 40.0924C103.775 40.1752 103.773 40.2547 103.773 40.3296C103.773 40.4045 103.773 40.4839 103.778 40.5713C103.781 40.6576 103.784 40.7767 103.786 40.93H103.58C103.534 40.5679 103.413 40.2933 103.217 40.106C103.022 39.9188 102.754 39.8246 102.416 39.8246C102.175 39.8246 101.982 39.8904 101.836 40.0209C101.69 40.1514 101.616 40.325 101.616 40.5407C101.616 40.8743 101.965 41.149 102.661 41.3646L102.742 41.3896C103.241 41.5451 103.582 41.7153 103.768 41.898C103.952 42.083 104.045 42.3259 104.045 42.6312C104.045 43.0307 103.906 43.3496 103.625 43.589C103.345 43.8274 102.97 43.9477 102.498 43.9477C102.274 43.9477 102.067 43.9181 101.877 43.8591C101.688 43.8001 101.507 43.7082 101.338 43.5856L101.282 43.8705H101.076V43.8682L101.075 43.8694Z" fill="#4F4F4F"/>
<path d="M108.403 42.6868C108.284 43.0976 108.073 43.4165 107.765 43.6401C107.458 43.8648 107.079 43.976 106.629 43.976C106.043 43.976 105.575 43.7888 105.225 43.4131C104.874 43.0375 104.699 42.5324 104.699 41.8958C104.699 41.1978 104.896 40.6292 105.287 40.1911C105.679 39.7542 106.186 39.5352 106.807 39.5352C107.223 39.5352 107.57 39.6464 107.85 39.8688C108.13 40.0913 108.271 40.3636 108.271 40.6859C108.271 40.8119 108.241 40.9129 108.182 40.9878C108.124 41.0627 108.044 41.1002 107.944 41.1002C107.843 41.1002 107.76 41.0593 107.701 40.9754C107.642 40.8914 107.613 40.7745 107.613 40.6213C107.613 40.5486 107.622 40.4771 107.641 40.4056C107.66 40.333 107.687 40.2592 107.724 40.1809C107.636 40.0549 107.518 39.9596 107.37 39.8961C107.221 39.8325 107.046 39.8019 106.843 39.8019C106.436 39.8019 106.106 39.9868 105.852 40.3546C105.599 40.7223 105.472 41.2103 105.472 41.8174C105.472 42.3633 105.596 42.7866 105.842 43.0829C106.089 43.3802 106.438 43.5289 106.89 43.5289C107.202 43.5289 107.474 43.4494 107.702 43.2917C107.93 43.1339 108.103 42.9058 108.217 42.6096L108.402 42.6822V42.6856L108.403 42.6868Z" fill="#4F4F4F"/>
<path d="M113.095 43.028C113.095 43.2924 113.125 43.4536 113.188 43.5092C113.249 43.5659 113.395 43.6034 113.624 43.6238L113.619 43.8701C113.451 43.8553 113.288 43.8451 113.132 43.8372C112.976 43.8292 112.824 43.827 112.675 43.827C112.527 43.827 112.38 43.8304 112.22 43.8372C112.059 43.844 111.886 43.8553 111.7 43.8701L111.695 43.6238C112.022 43.6 112.221 43.5603 112.293 43.5035C112.366 43.4468 112.401 43.2868 112.401 43.0291V41.0533C112.401 40.6424 112.34 40.344 112.217 40.1601C112.093 39.9751 111.897 39.8843 111.628 39.8843C111.267 39.8843 110.94 40.0364 110.647 40.3417C110.355 40.647 110.209 40.9772 110.209 41.3336V43.028C110.209 43.2981 110.239 43.4604 110.3 43.5137C110.361 43.5671 110.504 43.6034 110.728 43.6238V43.8701C110.556 43.8553 110.393 43.8451 110.238 43.8372C110.083 43.8292 109.933 43.827 109.787 43.827C109.641 43.827 109.49 43.8304 109.334 43.8372C109.178 43.8451 109.004 43.8553 108.812 43.8701V43.6238C109.137 43.6 109.334 43.5603 109.406 43.5035C109.478 43.4468 109.513 43.2868 109.513 43.0291V38.2285C109.513 37.997 109.475 37.8506 109.399 37.7859C109.323 37.7212 109.152 37.6883 108.881 37.6883V37.4466C109.134 37.4227 109.369 37.4012 109.586 37.3773C109.803 37.3535 110.011 37.3297 110.209 37.3047V40.5573C110.403 40.2293 110.63 39.9842 110.889 39.8219C111.149 39.6596 111.441 39.5779 111.768 39.5779C112.246 39.5779 112.587 39.6982 112.791 39.9365C112.994 40.1749 113.096 40.5823 113.096 41.1577V43.0291H113.094L113.095 43.028Z" fill="#4F4F4F"/>
<path d="M114.336 41.8369C114.336 41.1503 114.516 40.601 114.875 40.1913C115.235 39.7816 115.713 39.5762 116.308 39.5762C116.86 39.5762 117.302 39.7668 117.634 40.1493C117.964 40.5318 118.13 41.0459 118.13 41.6939C118.13 42.3782 117.948 42.9241 117.586 43.3338C117.224 43.7424 116.745 43.9467 116.149 43.9467C115.594 43.9467 115.152 43.7571 114.827 43.377C114.501 42.9968 114.337 42.4838 114.337 41.8369H114.336ZM116.242 39.8134C115.885 39.8134 115.607 39.9927 115.408 40.3513C115.209 40.7099 115.11 41.2104 115.11 41.8539C115.11 42.4407 115.209 42.898 115.404 43.226C115.6 43.554 115.871 43.7174 116.217 43.7174C116.563 43.7174 116.847 43.5438 117.051 43.1954C117.256 42.8481 117.359 42.3714 117.359 41.7677C117.359 41.1639 117.262 40.6657 117.067 40.3252C116.873 39.9836 116.598 39.8145 116.244 39.8145L116.242 39.8134Z" fill="#4F4F4F"/>
<path d="M118.904 41.8369C118.904 41.1503 119.084 40.601 119.444 40.1913C119.803 39.7816 120.281 39.5762 120.876 39.5762C121.429 39.5762 121.871 39.7668 122.202 40.1493C122.532 40.5318 122.698 41.0459 122.698 41.6939C122.698 42.3782 122.516 42.9241 122.155 43.3338C121.793 43.7424 121.313 43.9467 120.718 43.9467C120.163 43.9467 119.721 43.7571 119.395 43.377C119.069 42.9968 118.905 42.4838 118.905 41.8369H118.904ZM120.81 39.8134C120.453 39.8134 120.175 39.9927 119.976 40.3513C119.777 40.7099 119.679 41.2104 119.679 41.8539C119.679 42.4407 119.777 42.898 119.973 43.226C120.168 43.554 120.44 43.7174 120.785 43.7174C121.131 43.7174 121.415 43.5438 121.62 43.1954C121.824 42.8481 121.927 42.3714 121.927 41.7677C121.927 41.1639 121.83 40.6657 121.636 40.3252C121.441 39.9836 121.166 39.8145 120.813 39.8145L120.81 39.8134Z" fill="#4F4F4F"/>
<path d="M124.642 43.0272C124.642 43.3064 124.682 43.4732 124.759 43.5277C124.835 43.5833 125.032 43.615 125.348 43.623V43.8693C125.144 43.8545 124.956 43.8443 124.782 43.8364C124.609 43.8284 124.442 43.8261 124.282 43.8261C124.121 43.8261 123.959 43.8295 123.79 43.8364C123.619 43.8443 123.438 43.8545 123.246 43.8693V43.623C123.57 43.5992 123.767 43.5594 123.84 43.5027C123.912 43.446 123.947 43.2859 123.947 43.0283V38.2277C123.947 38.0007 123.907 37.8531 123.83 37.7873C123.754 37.7204 123.575 37.6875 123.297 37.6875H123.189L123.194 37.4412C123.44 37.4264 123.683 37.4083 123.924 37.3844C124.165 37.3606 124.404 37.3345 124.642 37.3027V43.026V43.0272Z" fill="#4F4F4F"/>
</svg>
