<svg width="16" height="16" viewBox="0 0 16 16" fill="none" xmlns="http://www.w3.org/2000/svg">
<path d="M5.99967 0.666504V1.99984H9.99967V0.666504H11.333V1.99984H13.9997C14.3679 1.99984 14.6663 2.29832 14.6663 2.6665V13.3332C14.6663 13.7014 14.3679 13.9998 13.9997 13.9998H1.99967C1.63149 13.9998 1.33301 13.7014 1.33301 13.3332V2.6665C1.33301 2.29832 1.63149 1.99984 1.99967 1.99984H4.66634V0.666504H5.99967ZM13.333 7.33317H2.66634V12.6665H13.333V7.33317ZM4.66634 3.33317H2.66634V5.99984H13.333V3.33317H11.333V4.6665H9.99967V3.33317H5.99967V4.6665H4.66634V3.33317Z" fill="#9D9E9E"/>
</svg>
