<svg width="28" height="28" viewBox="0 0 28 28" fill="none" xmlns="http://www.w3.org/2000/svg">
<g clip-path="url(#clip0_902_4377)">
<path d="M27.6663 14.262C27.6663 13.1149 27.5732 12.2778 27.3718 11.4097H14.2725V16.5873H21.9615C21.8065 17.874 20.9694 19.8118 19.1091 21.1139L19.083 21.2873L23.2248 24.4958L23.5117 24.5245C26.147 22.0906 27.6663 18.5096 27.6663 14.262Z" fill="#4285F4"/>
<path d="M14.2726 27.9039C18.0395 27.9039 21.2019 26.6637 23.5118 24.5245L19.1092 21.1139C17.9311 21.9356 16.3498 22.5091 14.2726 22.5091C10.5831 22.5091 7.45169 20.0754 6.33543 16.7114L6.17181 16.7253L1.86516 20.0583L1.80884 20.2148C4.10313 24.7724 8.81578 27.9039 14.2726 27.9039Z" fill="#34A853"/>
<path d="M6.33532 16.7113C6.04078 15.8432 5.87033 14.913 5.87033 13.9519C5.87033 12.9907 6.04078 12.0606 6.31982 11.1925L6.31202 11.0076L1.9514 7.62109L1.80872 7.68896C0.863137 9.58024 0.320557 11.7041 0.320557 13.9519C0.320557 16.1997 0.863137 18.3234 1.80872 20.2147L6.33532 16.7113Z" fill="#FBBC05"/>
<path d="M14.2726 5.3947C16.8924 5.3947 18.6596 6.52635 19.6673 7.47204L23.6048 3.6275C21.1865 1.37969 18.0395 0 14.2726 0C8.81578 0 4.10313 3.1314 1.80884 7.68899L6.31994 11.1925C7.45169 7.82856 10.5831 5.3947 14.2726 5.3947Z" fill="#EB4335"/>
</g>
<defs>
<clipPath id="clip0_902_4377">
<rect width="28" height="28" fill="white"/>
</clipPath>
</defs>
</svg>
