<svg width="28" height="28" viewBox="0 0 28 28" fill="none" xmlns="http://www.w3.org/2000/svg">
<rect x="0.5" y="0.5" width="27" height="27" rx="4.5" stroke="white"/>
<path d="M14.0014 11.6666C12.7123 11.6666 11.6681 12.7112 11.6681 13.9999C11.6681 15.289 12.7127 16.3333 14.0014 16.3333C15.2904 16.3333 16.3348 15.2886 16.3348 13.9999C16.3348 12.7109 15.2901 11.6666 14.0014 11.6666ZM14.0014 10.1111C16.1484 10.1111 17.8903 11.851 17.8903 13.9999C17.8903 16.147 16.1504 17.8888 14.0014 17.8888C11.8544 17.8888 10.1125 16.1489 10.1125 13.9999C10.1125 11.8529 11.8525 10.1111 14.0014 10.1111ZM19.057 9.91595C19.057 10.4527 18.6208 10.8882 18.0848 10.8882C17.548 10.8882 17.1125 10.452 17.1125 9.91595C17.1125 9.37987 17.5486 8.94439 18.0848 8.94439C18.6201 8.94371 19.057 9.37987 19.057 9.91595ZM14.0014 7.77772C12.0768 7.77772 11.7631 7.78282 10.868 7.82268C10.2581 7.85131 9.84928 7.93333 9.46944 8.0808C9.13188 8.21172 8.88839 8.36804 8.62894 8.62748C8.3685 8.88792 8.21246 9.13077 8.08207 9.46848C7.93426 9.84919 7.85226 10.2574 7.82414 10.8664C7.78389 11.7251 7.77919 12.0252 7.77919 13.9999C7.77919 15.9246 7.78428 16.2382 7.82414 17.1333C7.85278 17.7429 7.93492 18.1523 8.08202 18.5313C8.21328 18.8693 8.36993 19.1134 8.62812 19.3716C8.88958 19.6327 9.13315 19.7893 9.46766 19.9184C9.85213 20.067 10.2607 20.1491 10.8679 20.1772C11.7266 20.2174 12.0267 20.2222 14.0014 20.2222C15.926 20.2222 16.2397 20.217 17.1348 20.1772C17.7431 20.1487 18.1528 20.0663 18.5328 19.9193C18.8699 19.7884 19.1147 19.6312 19.3731 19.3732C19.6346 19.1113 19.7908 18.8684 19.9201 18.5331C20.0683 18.15 20.1506 17.7409 20.1787 17.1335C20.2189 16.2748 20.2237 15.9746 20.2237 13.9999C20.2237 12.0754 20.2185 11.7617 20.1787 10.8666C20.1501 10.2581 20.0677 9.84777 19.9206 9.46797C19.79 9.13135 19.6331 8.88711 19.3739 8.62748C19.113 8.36662 18.8708 8.21089 18.5328 8.08061C18.1524 7.93292 17.7436 7.8508 17.1349 7.82269C16.2763 7.78243 15.9761 7.77772 14.0014 7.77772ZM14.0014 6.22217C16.1143 6.22217 16.3782 6.22995 17.2078 6.26883C18.0355 6.30708 18.6 6.438 19.0959 6.6305C19.6085 6.82819 20.0415 7.09522 20.4738 7.52754C20.9055 7.95986 21.1725 8.39411 21.3709 8.9055C21.5627 9.40069 21.6937 9.96587 21.7325 10.7936C21.7695 11.6232 21.7792 11.887 21.7792 13.9999C21.7792 16.1129 21.7714 16.3767 21.7325 17.2063C21.6943 18.034 21.5627 18.5986 21.3709 19.0944C21.1732 19.6071 20.9055 20.04 20.4738 20.4724C20.0415 20.904 19.6066 21.1711 19.0959 21.3694C18.6 21.5613 18.0355 21.6922 17.2078 21.7311C16.3782 21.768 16.1143 21.7777 14.0014 21.7777C11.8884 21.7777 11.6246 21.7699 10.795 21.7311C9.96733 21.6928 9.40345 21.5613 8.90697 21.3694C8.39492 21.1717 7.96131 20.904 7.529 20.4724C7.09669 20.04 6.8303 19.6052 6.63197 19.0944C6.43947 18.5986 6.30919 18.034 6.2703 17.2063C6.23336 16.3767 6.22363 16.1129 6.22363 13.9999C6.22363 11.887 6.23141 11.6232 6.2703 10.7936C6.30854 9.96522 6.43947 9.40133 6.63197 8.9055C6.82965 8.39347 7.09669 7.95986 7.529 7.52754C7.96131 7.09522 8.39558 6.82883 8.90697 6.6305C9.4028 6.438 9.96669 6.30772 10.795 6.26883C11.6246 6.23189 11.8884 6.22217 14.0014 6.22217Z" fill="white"/>
</svg>
