<svg width="24" height="24" viewBox="0 0 24 24" fill="none" xmlns="http://www.w3.org/2000/svg">
<circle cx="12" cy="12" r="12" fill="#E4E4E4"/>
<path d="M16.6667 10.6663H17.3333C17.7015 10.6663 18 10.9648 18 11.333V17.9997C18 18.3679 17.7015 18.6663 17.3333 18.6663H6.66667C6.29848 18.6663 6 18.3679 6 17.9997V11.333C6 10.9648 6.29848 10.6663 6.66667 10.6663H7.33333V9.99967C7.33333 7.42235 9.42267 5.33301 12 5.33301C14.5773 5.33301 16.6667 7.42235 16.6667 9.99967V10.6663ZM15.3333 10.6663V9.99967C15.3333 8.15873 13.8409 6.66634 12 6.66634C10.1591 6.66634 8.66667 8.15873 8.66667 9.99967V10.6663H15.3333ZM11.3333 13.333V15.9997H12.6667V13.333H11.3333Z" fill="#8D8D8D"/>
</svg>
