<svg width="28" height="28" viewBox="0 0 28 28" fill="none" xmlns="http://www.w3.org/2000/svg">
<rect x="0.5" y="0.5" width="27" height="27" rx="4.5" stroke="#4F4F4F"/>
<path d="M14.0014 20.2222C17.4379 20.2222 20.2237 17.4364 20.2237 13.9999C20.2237 10.5635 17.4379 7.77772 14.0014 7.77772C10.565 7.77772 7.77919 10.5635 7.77919 13.9999C7.77919 17.4364 10.565 20.2222 14.0014 20.2222ZM14.0014 21.7777C9.70586 21.7777 6.22363 18.2955 6.22363 13.9999C6.22363 9.7044 9.70586 6.22217 14.0014 6.22217C18.2969 6.22217 21.7792 9.7044 21.7792 13.9999C21.7792 18.2955 18.2969 21.7777 14.0014 21.7777ZM11.5826 14.9106L9.63971 14.3041C9.21978 14.1753 9.21728 13.8864 9.73374 13.6788L17.3039 10.7547C17.7429 10.575 17.9926 10.8021 17.8503 11.3683L16.5609 17.4515C16.4711 17.8842 16.2101 17.9873 15.8486 17.7876L13.8645 16.3195L12.9398 17.2119C12.8448 17.3036 12.7675 17.3824 12.6219 17.4022C12.4762 17.4219 12.3561 17.3788 12.2688 17.1373L11.5925 14.9043L11.5826 14.9106Z" fill="#4F4F4F"/>
</svg>
