<svg width="28" height="28" viewBox="0 0 28 28" fill="none" xmlns="http://www.w3.org/2000/svg">
<g clip-path="url(#clip0_902_4393)">
<path d="M23.8 0H4.2C1.8804 0 0 1.8804 0 4.2V23.8C0 26.1196 1.8804 28 4.2 28H23.8C26.1196 28 28 26.1196 28 23.8V4.2C28 1.8804 26.1196 0 23.8 0Z" fill="#5281B8"/>
<path d="M14.9844 19.8517C15.2578 19.797 15.75 19.6876 15.75 19.0313C15.75 19.0313 15.6953 17.3907 16.461 17.172C17.2266 16.9532 18.211 18.7579 19.25 19.4688C20.0157 19.961 20.6172 19.9063 20.6172 19.9063L23.4063 19.8517C23.4063 19.8517 24.8282 19.7423 24.1719 18.5938C24.1172 18.4845 23.6797 17.7735 22.0391 16.297C20.3438 14.6563 20.6172 14.9298 22.6407 12.1407C23.8985 10.4454 24.4453 9.40634 24.2813 9.02353C24.0625 8.64072 23.1875 8.6954 23.1875 8.6954H20.0703C19.7422 8.6954 19.5782 8.75009 19.4141 9.02353C19.4141 9.02353 18.9219 10.3907 18.2657 11.4845C16.8985 13.836 16.3516 13.9454 16.0782 13.7813C15.586 13.5079 15.6953 12.4688 15.6953 11.7579C15.6953 9.29697 16.0782 8.42197 14.9844 8.20322C14.2735 8.09384 11.7578 7.98447 10.9922 8.36728C10.6094 8.58603 10.3907 8.96884 10.5547 9.02353C10.7188 9.02353 11.211 9.07822 11.4844 9.40634C11.9219 10.1173 11.9766 13.5079 11.375 13.836C10.5547 14.4376 8.47659 10.4454 7.98441 9.1329C7.87503 8.80478 7.71097 8.75009 7.32816 8.64072H4.32034C3.99222 8.64072 3.50003 8.6954 3.71878 9.35165C5.19534 12.4142 8.25784 19.9063 13.7813 19.8517H14.9844Z" fill="white"/>
</g>
<defs>
<clipPath id="clip0_902_4393">
<rect width="28" height="28" fill="white"/>
</clipPath>
</defs>
</svg>
