<svg width="28" height="28" viewBox="0 0 28 28" fill="none" xmlns="http://www.w3.org/2000/svg">
<rect x="0.5" y="0.5" width="27" height="27" rx="4.5" stroke="#ffffff"/>
<path d="M10.4156 19.0511L10.9788 19.3798C11.9199 19.9289 12.9894 20.2222 14.1054 20.2222C17.5395 20.2222 20.3233 17.4364 20.3233 13.9999C20.3233 10.5635 17.5395 7.77772 14.1054 7.77772C10.6713 7.77772 7.88748 10.5635 7.88748 13.9999C7.88748 15.1171 8.18068 16.1877 8.72976 17.1296L9.05805 17.6927L8.55013 19.5606L10.4156 19.0511ZM6.33626 21.7777L7.38705 17.9133C6.71693 16.7639 6.33301 15.4268 6.33301 13.9999C6.33301 9.7044 9.81282 6.22217 14.1054 6.22217C18.3979 6.22217 21.8778 9.7044 21.8778 13.9999C21.8778 18.2955 18.3979 21.7777 14.1054 21.7777C12.68 21.7777 11.3443 21.3938 10.1958 20.7236L6.33626 21.7777ZM11.3006 10.3509C11.4047 10.3436 11.5091 10.3424 11.6133 10.3475C11.6554 10.3503 11.6972 10.3552 11.7392 10.36C11.863 10.3743 11.9991 10.4497 12.0448 10.5536C12.2767 11.0797 12.5017 11.6088 12.7197 12.1408C12.7679 12.2582 12.7389 12.4104 12.6473 12.5577C12.6008 12.6332 12.5278 12.7392 12.4433 12.8475C12.3554 12.9601 12.1662 13.167 12.1662 13.167C12.1662 13.167 12.0895 13.259 12.1184 13.3734C12.1297 13.4166 12.1656 13.4796 12.1981 13.5326C12.2161 13.5619 12.2329 13.5881 12.2437 13.6062C12.4427 13.9386 12.71 14.2755 13.0366 14.5923C13.1302 14.6831 13.221 14.7757 13.3186 14.8617C13.6826 15.1829 14.0944 15.4453 14.5391 15.6397L14.5431 15.6414C14.6087 15.6698 14.6425 15.6852 14.7386 15.7261C14.7871 15.7466 14.8367 15.7643 14.8876 15.7778C14.906 15.7826 14.9249 15.7853 14.9439 15.7867C15.0696 15.7942 15.1422 15.7135 15.1733 15.6764C15.7356 14.9947 15.787 14.9502 15.7909 14.9505V14.9518C15.8648 14.8739 15.981 14.8468 16.0847 14.8532C16.1321 14.856 16.1792 14.8651 16.2222 14.8848C16.6355 15.0735 17.3114 15.3678 17.3114 15.3678L17.7633 15.5711C17.839 15.6077 17.9081 15.6938 17.9115 15.7775C17.9135 15.8295 17.9191 15.9135 17.9005 16.0672C17.8762 16.2684 17.815 16.5107 17.7542 16.6376C17.7115 16.7267 17.6561 16.8057 17.5918 16.8726C17.5045 16.9633 17.4397 17.0183 17.3348 17.0966C17.2709 17.1442 17.2378 17.1666 17.2378 17.1666C17.1298 17.2347 17.0689 17.2688 16.9403 17.3373C16.7402 17.4439 16.5192 17.5052 16.2928 17.5169C16.1485 17.5243 16.0045 17.5347 15.8603 17.5269C15.854 17.5265 15.4187 17.4597 15.4187 17.4597C14.3135 17.1688 13.2915 16.6239 12.4338 15.8682C12.2585 15.7137 12.0959 15.5466 11.9299 15.3812C11.2389 14.6928 10.7157 13.9505 10.3985 13.2483C10.2421 12.902 10.143 12.5312 10.1415 12.1496C10.1386 11.6775 10.293 11.218 10.5804 10.8436C10.637 10.7698 10.6908 10.6933 10.7836 10.6056C10.8818 10.5128 10.9443 10.463 11.0117 10.4285C11.1014 10.3825 11.2 10.3579 11.3006 10.3509Z" fill="#ffffff"/>
</svg>
