<svg width="32" height="32" viewBox="0 0 32 32" fill="none" xmlns="http://www.w3.org/2000/svg">
<path d="M19.7709 10.3429L12.2284 17.8853C11.7077 18.406 11.7077 19.2502 12.2284 19.7709C12.7491 20.2917 13.5933 20.2917 14.114 19.7709L21.6565 12.2285C23.2185 10.6664 23.2185 8.13374 21.6565 6.57163C20.0944 5.00954 17.5617 5.00954 15.9996 6.57163L8.45717 14.1141C5.85368 16.7176 5.85368 20.9386 8.45717 23.5422C11.0607 26.1457 15.2817 26.1457 17.8852 23.5422L25.4277 15.9997L27.3133 17.8853L19.7709 25.4278C16.126 29.0726 10.2165 29.0726 6.57156 25.4278C2.92667 21.7829 2.92667 15.8734 6.57156 12.2285L14.114 4.68602C16.7175 2.08253 20.9387 2.08253 23.5421 4.68602C26.1456 7.28951 26.1456 11.5106 23.5421 14.1141L15.9996 21.6566C14.4376 23.2186 11.9049 23.2186 10.3428 21.6566C8.78069 20.0945 8.78069 17.5618 10.3428 15.9997L17.8852 8.45726L19.7709 10.3429Z" fill="#CCCCCC"/>
</svg>
