<svg width="52" height="49" viewBox="0 0 52 49" fill="none" xmlns="http://www.w3.org/2000/svg">
<path d="M44.4048 23.8754C34.0938 23.9054 25.7324 32.3419 25.6975 42.7507C25.673 32.3419 17.32 23.9054 7.00912 23.8754C17.3201 23.8454 25.6815 15.4088 25.7164 5C25.7409 15.4088 34.0939 23.8454 44.4048 23.8754Z" fill="white"/>
<path d="M20.7642 32.7444C15.9939 34.6416 13.662 40.0765 15.5471 44.904C13.6345 40.0874 8.22461 37.7055 3.44335 39.5749C8.21367 37.6777 10.5455 32.2428 8.66042 27.4153C10.573 32.2319 15.9829 34.6138 20.7642 32.7444Z" fill="white"/>
<path d="M47.7642 8.74436C42.9939 10.6416 40.662 16.0765 42.5471 20.904C40.6345 16.0874 35.2246 13.7055 30.4434 15.5749C35.2137 13.6777 37.5455 8.24279 35.6604 3.41528C37.573 8.23193 42.9829 10.6138 47.7642 8.74436Z" fill="white"/>
</svg>
